<svg width="393" height="852" viewBox="0 0 393 852" fill="none" xmlns="http://www.w3.org/2000/svg">
<rect width="393" height="852" fill="white"/>
<path fill-rule="evenodd" clip-rule="evenodd" d="M301 20H302C302.552 20 303 20.4477 303 21V27C303 27.5523 302.552 28 302 28H301C300.448 28 300 27.5523 300 27V21C300 20.4477 300.448 20 301 20Z" fill="#D1D1D6"/>
<path fill-rule="evenodd" clip-rule="evenodd" d="M296.5 22H297.5C298.052 22 298.5 22.4477 298.5 23V27C298.5 27.5523 298.052 28 297.5 28H296.5C295.948 28 295.5 27.5523 295.5 27V23C295.5 22.4477 295.948 22 296.5 22Z" fill="#D1D1D6"/>
<path fill-rule="evenodd" clip-rule="evenodd" d="M292 23.5H293C293.552 23.5 294 23.9477 294 24.5V27C294 27.5523 293.552 28 293 28H292C291.448 28 291 27.5523 291 27V24.5C291 23.9477 291.448 23.5 292 23.5Z" fill="#D1D1D6"/>
<path fill-rule="evenodd" clip-rule="evenodd" d="M305.5 18H306.5C307.052 18 307.5 18.4477 307.5 19V27C307.5 27.5523 307.052 28 306.5 28H305.5C304.948 28 304.5 27.5523 304.5 27V19C304.5 18.4477 304.948 18 305.5 18Z" fill="#3C3C43" fill-opacity="0.18"/>
<path fill-rule="evenodd" clip-rule="evenodd" d="M301 20H302C302.552 20 303 20.4477 303 21V27C303 27.5523 302.552 28 302 28H301C300.448 28 300 27.5523 300 27V21C300 20.4477 300.448 20 301 20Z" fill="black"/>
<path fill-rule="evenodd" clip-rule="evenodd" d="M296.5 22H297.5C298.052 22 298.5 22.4477 298.5 23V27C298.5 27.5523 298.052 28 297.5 28H296.5C295.948 28 295.5 27.5523 295.5 27V23C295.5 22.4477 295.948 22 296.5 22Z" fill="black"/>
<path fill-rule="evenodd" clip-rule="evenodd" d="M292 23.5H293C293.552 23.5 294 23.9477 294 24.5V27C294 27.5523 293.552 28 293 28H292C291.448 28 291 27.5523 291 27V24.5C291 23.9477 291.448 23.5 292 23.5Z" fill="black"/>
<path d="M321.133 24.9396C321.772 24.9396 322.394 25.1076 322.941 25.428L323.163 25.5579C323.331 25.6563 323.361 25.8866 323.223 26.0242L321.329 27.913C321.212 28.029 321.024 28.029 320.907 27.913L319.026 26.0363C318.888 25.8994 318.917 25.6702 319.084 25.5711L319.303 25.4406C319.855 25.1121 320.485 24.9396 321.133 24.9396Z" fill="black"/>
<path d="M321.133 21.4698C322.724 21.4698 324.251 21.9976 325.495 22.9749L325.671 23.113C325.811 23.2232 325.824 23.4306 325.697 23.5565L324.567 24.6841C324.462 24.7884 324.297 24.8004 324.178 24.7123L324.04 24.6098C323.2 23.9852 322.186 23.6502 321.133 23.6502C320.073 23.6502 319.053 23.9894 318.21 24.6211L318.072 24.7245C317.953 24.8134 317.787 24.8017 317.682 24.6971L316.552 23.5699C316.426 23.4443 316.438 23.2373 316.578 23.127L316.753 22.9888C318 22.0027 319.534 21.4698 321.133 21.4698Z" fill="black"/>
<path d="M321.133 18C323.657 18 326.072 18.8906 327.983 20.5229L328.146 20.6623C328.278 20.7749 328.285 20.9756 328.163 21.098L327.036 22.2219C326.926 22.3308 326.752 22.3385 326.634 22.2395L326.494 22.1228C324.989 20.8647 323.104 20.1804 321.133 20.1804C319.155 20.1804 317.263 20.8694 315.756 22.1354L315.617 22.2527C315.498 22.3521 315.324 22.3447 315.214 22.2356L314.087 21.1118C313.965 20.9895 313.972 20.7892 314.104 20.6765L314.266 20.5371C316.18 18.8959 318.601 18 321.133 18Z" fill="black"/>
<path d="M357 21C357.552 21 358 21.4477 358 22V24C358 24.5523 357.552 25 357 25V21Z" fill="#3C3C43" fill-opacity="0.6"/>
<path fill-rule="evenodd" clip-rule="evenodd" d="M336 17H353C354.657 17 356 18.3431 356 20V26C356 27.6569 354.657 29 353 29H336C334.343 29 333 27.6569 333 26V20C333 18.3431 334.343 17 336 17ZM336 18C334.895 18 334 18.8954 334 20V26C334 27.1046 334.895 28 336 28H353C354.105 28 355 27.1046 355 26V20C355 18.8954 354.105 18 353 18H336Z" fill="#3C3C43" fill-opacity="0.6"/>
<rect x="335" y="19" width="19" height="8" rx="1" fill="black"/>
<path d="M37.8672 28.0889C40.5552 28.0889 42.1519 25.9868 42.1519 22.4272C42.1519 21.0869 41.8955 19.959 41.4048 19.0874C40.6943 17.7324 39.4712 17 37.9258 17C35.626 17 34 18.5454 34 20.7134C34 22.7495 35.4648 24.229 37.479 24.229C38.7168 24.229 39.7202 23.6504 40.2183 22.647H40.2402C40.2402 22.647 40.2695 22.647 40.2769 22.647C40.2915 22.647 40.3428 22.647 40.3428 22.647C40.3428 25.064 39.4272 26.5068 37.8818 26.5068C36.9736 26.5068 36.2705 26.0088 36.0288 25.2104H34.1465C34.4614 26.9463 35.9336 28.0889 37.8672 28.0889ZM37.9331 22.7275C36.7173 22.7275 35.853 21.8633 35.853 20.6548C35.853 19.4756 36.7612 18.5747 37.9404 18.5747C39.1196 18.5747 40.0278 19.4902 40.0278 20.6841C40.0278 21.8633 39.1416 22.7275 37.9331 22.7275Z" fill="black"/>
<path d="M45.243 27.9863C45.9388 27.9863 46.4148 27.4883 46.4148 26.8291C46.4148 26.1626 45.9388 25.6719 45.243 25.6719C44.5545 25.6719 44.0711 26.1626 44.0711 26.8291C44.0711 27.4883 44.5545 27.9863 45.243 27.9863ZM45.243 22.4932C45.9388 22.4932 46.4148 22.0024 46.4148 21.3433C46.4148 20.6768 45.9388 20.186 45.243 20.186C44.5545 20.186 44.0711 20.6768 44.0711 21.3433C44.0711 22.0024 44.5545 22.4932 45.243 22.4932Z" fill="black"/>
<path d="M53.2706 27.8325H55.0797V25.8623H56.5079V24.2656H55.0797V17.2637H52.4137C50.546 20.0762 49.0592 22.4272 48.107 24.1777V25.8623H53.2706V27.8325ZM49.8575 24.1997C51.088 22.0317 52.1866 20.2959 53.1974 18.8018H53.2999V24.3096H49.8575V24.1997Z" fill="black"/>
<path d="M60.5365 27.8325H62.4262V17.2637H60.5438L57.7826 19.1973V21.0137L60.412 19.168H60.5365V27.8325Z" fill="black"/>
<path d="M164.842 88V71.2H170.002C171.954 71.2 173.57 71.544 174.85 72.232C176.13 72.92 177.074 73.896 177.682 75.16C178.306 76.408 178.618 77.896 178.618 79.624C178.618 81.352 178.306 82.84 177.682 84.088C177.074 85.336 176.13 86.304 174.85 86.992C173.586 87.664 171.97 88 170.002 88H164.842ZM167.242 85.984H169.906C171.458 85.984 172.69 85.728 173.602 85.216C174.514 84.704 175.162 83.976 175.546 83.032C175.946 82.072 176.146 80.936 176.146 79.624C176.146 78.296 175.946 77.152 175.546 76.192C175.162 75.232 174.514 74.496 173.602 73.984C172.69 73.472 171.458 73.216 169.906 73.216H167.242V85.984ZM186.906 88.288C185.77 88.288 184.746 88.024 183.834 87.496C182.938 86.968 182.226 86.232 181.698 85.288C181.186 84.328 180.93 83.224 180.93 81.976C180.93 80.696 181.194 79.584 181.722 78.64C182.25 77.68 182.97 76.936 183.882 76.408C184.794 75.88 185.818 75.616 186.954 75.616C188.106 75.616 189.13 75.88 190.026 76.408C190.922 76.936 191.626 77.672 192.138 78.616C192.666 79.56 192.93 80.672 192.93 81.952C192.93 83.232 192.666 84.344 192.138 85.288C191.626 86.232 190.914 86.968 190.002 87.496C189.09 88.024 188.058 88.288 186.906 88.288ZM186.906 86.224C187.562 86.224 188.154 86.064 188.682 85.744C189.226 85.424 189.658 84.952 189.978 84.328C190.314 83.688 190.482 82.896 190.482 81.952C190.482 81.008 190.322 80.224 190.002 79.6C189.682 78.96 189.25 78.48 188.706 78.16C188.178 77.84 187.594 77.68 186.954 77.68C186.314 77.68 185.722 77.84 185.178 78.16C184.634 78.48 184.194 78.96 183.858 79.6C183.538 80.224 183.378 81.008 183.378 81.952C183.378 82.896 183.538 83.688 183.858 84.328C184.194 84.952 184.626 85.424 185.154 85.744C185.698 86.064 186.282 86.224 186.906 86.224ZM201.273 88.288C200.137 88.288 199.113 88.024 198.201 87.496C197.305 86.968 196.593 86.232 196.065 85.288C195.553 84.328 195.297 83.224 195.297 81.976C195.297 80.696 195.561 79.584 196.089 78.64C196.617 77.68 197.337 76.936 198.249 76.408C199.161 75.88 200.185 75.616 201.321 75.616C202.473 75.616 203.497 75.88 204.393 76.408C205.289 76.936 205.993 77.672 206.505 78.616C207.033 79.56 207.297 80.672 207.297 81.952C207.297 83.232 207.033 84.344 206.505 85.288C205.993 86.232 205.281 86.968 204.369 87.496C203.457 88.024 202.425 88.288 201.273 88.288ZM201.273 86.224C201.929 86.224 202.521 86.064 203.049 85.744C203.593 85.424 204.025 84.952 204.345 84.328C204.681 83.688 204.849 82.896 204.849 81.952C204.849 81.008 204.689 80.224 204.369 79.6C204.049 78.96 203.617 78.48 203.073 78.16C202.545 77.84 201.961 77.68 201.321 77.68C200.681 77.68 200.089 77.84 199.545 78.16C199.001 78.48 198.561 78.96 198.225 79.6C197.905 80.224 197.745 81.008 197.745 81.952C197.745 82.896 197.905 83.688 198.225 84.328C198.561 84.952 198.993 85.424 199.521 85.744C200.065 86.064 200.649 86.224 201.273 86.224ZM210.12 88V75.904H212.28L212.496 78.184C212.768 77.64 213.12 77.184 213.552 76.816C213.984 76.432 214.488 76.136 215.064 75.928C215.656 75.72 216.328 75.616 217.08 75.616V78.16H216.216C215.72 78.16 215.248 78.224 214.8 78.352C214.352 78.464 213.952 78.664 213.6 78.952C213.264 79.24 213 79.632 212.808 80.128C212.616 80.624 212.52 81.24 212.52 81.976V88H210.12ZM223.964 88.288C222.94 88.288 222.044 88.12 221.276 87.784C220.508 87.448 219.9 86.976 219.452 86.368C219.004 85.76 218.732 85.048 218.636 84.232H221.084C221.164 84.616 221.316 84.968 221.54 85.288C221.78 85.608 222.1 85.864 222.5 86.056C222.916 86.248 223.404 86.344 223.964 86.344C224.492 86.344 224.924 86.272 225.26 86.128C225.612 85.968 225.868 85.76 226.028 85.504C226.188 85.232 226.268 84.944 226.268 84.64C226.268 84.192 226.156 83.856 225.932 83.632C225.724 83.392 225.404 83.208 224.972 83.08C224.556 82.936 224.052 82.808 223.46 82.696C222.9 82.6 222.356 82.472 221.828 82.312C221.316 82.136 220.852 81.92 220.436 81.664C220.036 81.408 219.716 81.088 219.476 80.704C219.236 80.304 219.116 79.816 219.116 79.24C219.116 78.552 219.3 77.936 219.668 77.392C220.036 76.832 220.556 76.4 221.228 76.096C221.916 75.776 222.724 75.616 223.652 75.616C224.996 75.616 226.076 75.936 226.892 76.576C227.708 77.216 228.188 78.12 228.332 79.288H226.004C225.94 78.744 225.7 78.328 225.284 78.04C224.868 77.736 224.316 77.584 223.628 77.584C222.94 77.584 222.412 77.72 222.044 77.992C221.676 78.264 221.492 78.624 221.492 79.072C221.492 79.36 221.596 79.616 221.804 79.84C222.012 80.064 222.316 80.256 222.716 80.416C223.132 80.56 223.636 80.696 224.228 80.824C225.076 80.984 225.836 81.184 226.508 81.424C227.18 81.664 227.716 82.016 228.116 82.48C228.516 82.944 228.716 83.608 228.716 84.472C228.732 85.224 228.54 85.888 228.14 86.464C227.756 87.04 227.204 87.488 226.484 87.808C225.78 88.128 224.94 88.288 223.964 88.288Z" fill="#252322"/>
<path d="M17.6766 135V123.8H19.0206L24.9886 132.776V123.8H26.3326V135H24.9886L19.0206 126.024V135H17.6766ZM32.1951 135.192C31.4377 135.192 30.7657 135.016 30.1791 134.664C29.6031 134.312 29.1497 133.821 28.8191 133.192C28.4884 132.552 28.3231 131.811 28.3231 130.968C28.3231 130.115 28.4831 129.373 28.8031 128.744C29.1337 128.115 29.5924 127.624 30.1791 127.272C30.7764 126.92 31.4591 126.744 32.2271 126.744C33.0164 126.744 33.6831 126.92 34.2271 127.272C34.7817 127.624 35.2031 128.088 35.4911 128.664C35.7897 129.229 35.9391 129.853 35.9391 130.536C35.9391 130.643 35.9391 130.755 35.9391 130.872C35.9391 130.989 35.9337 131.123 35.9231 131.272H29.3311V130.232H34.6271C34.5951 129.496 34.3497 128.92 33.8911 128.504C33.4431 128.088 32.8777 127.88 32.1951 127.88C31.7364 127.88 31.3097 127.987 30.9151 128.2C30.5311 128.403 30.2217 128.707 29.9871 129.112C29.7524 129.507 29.6351 130.003 29.6351 130.6V131.048C29.6351 131.709 29.7524 132.264 29.9871 132.712C30.2324 133.16 30.5471 133.496 30.9311 133.72C31.3257 133.944 31.7471 134.056 32.1951 134.056C32.7604 134.056 33.2244 133.933 33.5871 133.688C33.9604 133.432 34.2271 133.091 34.3871 132.664H35.7151C35.5871 133.144 35.3631 133.576 35.0431 133.96C34.7231 134.344 34.3231 134.648 33.8431 134.872C33.3737 135.085 32.8244 135.192 32.1951 135.192ZM40.3768 135.192C39.7261 135.192 39.1821 135.08 38.7448 134.856C38.3075 134.621 37.9821 134.317 37.7688 133.944C37.5555 133.56 37.4488 133.144 37.4488 132.696C37.4488 132.152 37.5875 131.693 37.8648 131.32C38.1528 130.936 38.5528 130.648 39.0648 130.456C39.5875 130.253 40.2008 130.152 40.9048 130.152H43.0328C43.0328 129.651 42.9528 129.235 42.7928 128.904C42.6435 128.563 42.4195 128.307 42.1208 128.136C41.8328 127.965 41.4701 127.88 41.0328 127.88C40.5208 127.88 40.0781 128.008 39.7048 128.264C39.3315 128.52 39.1021 128.899 39.0168 129.4H37.6408C37.7048 128.824 37.8968 128.344 38.2168 127.96C38.5475 127.565 38.9635 127.267 39.4648 127.064C39.9661 126.851 40.4888 126.744 41.0328 126.744C41.7795 126.744 42.3981 126.883 42.8888 127.16C43.3901 127.427 43.7635 127.805 44.0088 128.296C44.2541 128.776 44.3768 129.347 44.3768 130.008V135H43.1768L43.0968 133.576C42.9901 133.8 42.8515 134.013 42.6808 134.216C42.5208 134.408 42.3288 134.579 42.1048 134.728C41.8808 134.867 41.6248 134.979 41.3368 135.064C41.0595 135.149 40.7395 135.192 40.3768 135.192ZM40.5848 134.056C40.9581 134.056 41.2941 133.981 41.5928 133.832C41.9021 133.672 42.1635 133.459 42.3768 133.192C42.5901 132.915 42.7501 132.611 42.8568 132.28C42.9741 131.949 43.0328 131.603 43.0328 131.24V131.192H41.0168C40.4941 131.192 40.0728 131.256 39.7528 131.384C39.4328 131.501 39.2035 131.672 39.0648 131.896C38.9261 132.109 38.8568 132.355 38.8568 132.632C38.8568 132.92 38.9208 133.171 39.0488 133.384C39.1875 133.597 39.3848 133.763 39.6408 133.88C39.9075 133.997 40.2221 134.056 40.5848 134.056ZM46.4559 135V126.936H47.6719L47.7679 128.472C47.9493 128.109 48.1786 127.8 48.4559 127.544C48.7439 127.288 49.0853 127.091 49.4799 126.952C49.8853 126.813 50.3439 126.744 50.8559 126.744V128.152H50.3599C50.0186 128.152 49.6933 128.2 49.3839 128.296C49.0746 128.381 48.7973 128.525 48.5519 128.728C48.3173 128.931 48.1306 129.208 47.9919 129.56C47.8639 129.901 47.7999 130.328 47.7999 130.84V135H46.4559ZM56.6018 135.192C56.1431 135.192 55.7271 135.128 55.3538 135C54.9911 134.861 54.6711 134.68 54.3938 134.456C54.1165 134.232 53.8871 133.971 53.7058 133.672L53.5938 135H52.3778V123.48H53.7218V128.264C53.9778 127.848 54.3458 127.491 54.8258 127.192C55.3058 126.893 55.8978 126.744 56.6018 126.744C57.3805 126.744 58.0631 126.931 58.6498 127.304C59.2365 127.667 59.6898 128.168 60.0098 128.808C60.3405 129.437 60.5058 130.157 60.5058 130.968C60.5058 131.779 60.3405 132.504 60.0098 133.144C59.6898 133.784 59.2365 134.285 58.6498 134.648C58.0631 135.011 57.3805 135.192 56.6018 135.192ZM56.4418 134.024C56.9645 134.024 57.4285 133.896 57.8338 133.64C58.2391 133.384 58.5538 133.032 58.7778 132.584C59.0125 132.125 59.1298 131.587 59.1298 130.968C59.1298 130.36 59.0125 129.827 58.7778 129.368C58.5538 128.909 58.2391 128.552 57.8338 128.296C57.4285 128.04 56.9645 127.912 56.4418 127.912C55.9085 127.912 55.4391 128.04 55.0338 128.296C54.6285 128.552 54.3138 128.909 54.0898 129.368C53.8658 129.827 53.7538 130.36 53.7538 130.968C53.7538 131.587 53.8658 132.125 54.0898 132.584C54.3138 133.032 54.6285 133.384 55.0338 133.64C55.4391 133.896 55.9085 134.024 56.4418 134.024ZM62.6328 138.52L64.6008 134.104H64.1368L60.9688 126.936H62.4248L65.0488 133.096L67.8008 126.936H69.1928L64.0408 138.52H62.6328Z" fill="#7C7C7E"/>
<path d="M348.606 135V123.8H355.534V124.904H349.95V128.808H355.054V129.896H349.95V133.896H355.534V135H348.606ZM361.125 135.192C360.346 135.192 359.664 135.011 359.077 134.648C358.49 134.275 358.037 133.768 357.717 133.128C357.397 132.488 357.237 131.763 357.237 130.952C357.237 130.141 357.397 129.421 357.717 128.792C358.037 128.152 358.49 127.651 359.077 127.288C359.674 126.925 360.362 126.744 361.141 126.744C361.802 126.744 362.378 126.877 362.869 127.144C363.37 127.411 363.754 127.784 364.021 128.264V123.48H365.365V135H364.149L364.037 133.672C363.866 133.939 363.648 134.189 363.381 134.424C363.114 134.648 362.794 134.835 362.421 134.984C362.048 135.123 361.616 135.192 361.125 135.192ZM361.285 134.024C361.818 134.024 362.288 133.896 362.693 133.64C363.098 133.384 363.413 133.032 363.637 132.584C363.861 132.125 363.973 131.587 363.973 130.968C363.973 130.36 363.861 129.827 363.637 129.368C363.413 128.909 363.098 128.552 362.693 128.296C362.288 128.04 361.818 127.912 361.285 127.912C360.762 127.912 360.298 128.04 359.893 128.296C359.488 128.552 359.173 128.909 358.949 129.368C358.725 129.827 358.613 130.36 358.613 130.968C358.613 131.587 358.725 132.125 358.949 132.584C359.173 133.032 359.488 133.384 359.893 133.64C360.298 133.896 360.762 134.024 361.285 134.024ZM367.732 135V126.936H369.076V135H367.732ZM368.404 125.224C368.138 125.224 367.914 125.139 367.732 124.968C367.562 124.787 367.476 124.563 367.476 124.296C367.476 124.029 367.562 123.816 367.732 123.656C367.914 123.485 368.138 123.4 368.404 123.4C368.66 123.4 368.879 123.485 369.06 123.656C369.242 123.816 369.332 124.029 369.332 124.296C369.332 124.563 369.242 124.787 369.06 124.968C368.879 125.139 368.66 125.224 368.404 125.224ZM374.616 135C374.136 135 373.72 134.925 373.368 134.776C373.016 134.627 372.744 134.376 372.552 134.024C372.371 133.661 372.28 133.176 372.28 132.568V128.072H370.872V126.936H372.28L372.456 124.984H373.624V126.936H375.96V128.072H373.624V132.568C373.624 133.069 373.725 133.411 373.928 133.592C374.131 133.763 374.488 133.848 375 133.848H375.864V135H374.616Z" fill="#7C7C7E"/>
<rect x="16.5" y="156.5" width="215" height="67" rx="11.5" fill="white" fill-opacity="0.1"/>
<rect x="16.5" y="156.5" width="215" height="67" rx="11.5" stroke="#D4D4D4"/>
<path d="M33.2774 184V172.8H36.7174C38.0187 172.8 39.096 173.029 39.9494 173.488C40.8027 173.947 41.432 174.597 41.8374 175.44C42.2534 176.272 42.4614 177.264 42.4614 178.416C42.4614 179.568 42.2534 180.56 41.8374 181.392C41.432 182.224 40.8027 182.869 39.9494 183.328C39.1067 183.776 38.0294 184 36.7174 184H33.2774ZM34.8774 182.656H36.6534C37.688 182.656 38.5094 182.485 39.1174 182.144C39.7254 181.803 40.1574 181.317 40.4134 180.688C40.68 180.048 40.8134 179.291 40.8134 178.416C40.8134 177.531 40.68 176.768 40.4134 176.128C40.1574 175.488 39.7254 174.997 39.1174 174.656C38.5094 174.315 37.688 174.144 36.6534 174.144H34.8774V182.656ZM47.9868 184.192C47.2294 184.192 46.5468 184.016 45.9388 183.664C45.3414 183.312 44.8668 182.821 44.5148 182.192C44.1734 181.552 44.0028 180.816 44.0028 179.984C44.0028 179.131 44.1788 178.389 44.5308 177.76C44.8828 177.12 45.3628 176.624 45.9708 176.272C46.5788 175.92 47.2614 175.744 48.0188 175.744C48.7868 175.744 49.4694 175.92 50.0668 176.272C50.6641 176.624 51.1334 177.115 51.4748 177.744C51.8268 178.373 52.0028 179.115 52.0028 179.968C52.0028 180.821 51.8268 181.563 51.4748 182.192C51.1334 182.821 50.6588 183.312 50.0508 183.664C49.4428 184.016 48.7548 184.192 47.9868 184.192ZM47.9868 182.816C48.4241 182.816 48.8188 182.709 49.1708 182.496C49.5334 182.283 49.8214 181.968 50.0348 181.552C50.2588 181.125 50.3708 180.597 50.3708 179.968C50.3708 179.339 50.2641 178.816 50.0508 178.4C49.8374 177.973 49.5494 177.653 49.1868 177.44C48.8348 177.227 48.4454 177.12 48.0188 177.12C47.5921 177.12 47.1974 177.227 46.8348 177.44C46.4721 177.653 46.1788 177.973 45.9548 178.4C45.7414 178.816 45.6348 179.339 45.6348 179.968C45.6348 180.597 45.7414 181.125 45.9548 181.552C46.1788 181.968 46.4668 182.283 46.8188 182.496C47.1814 182.709 47.5708 182.816 47.9868 182.816ZM57.5649 184.192C56.8075 184.192 56.1249 184.016 55.5169 183.664C54.9195 183.312 54.4449 182.821 54.0929 182.192C53.7515 181.552 53.5809 180.816 53.5809 179.984C53.5809 179.131 53.7569 178.389 54.1089 177.76C54.4609 177.12 54.9409 176.624 55.5489 176.272C56.1569 175.92 56.8395 175.744 57.5969 175.744C58.3649 175.744 59.0475 175.92 59.6449 176.272C60.2422 176.624 60.7115 177.115 61.0529 177.744C61.4049 178.373 61.5809 179.115 61.5809 179.968C61.5809 180.821 61.4049 181.563 61.0529 182.192C60.7115 182.821 60.2369 183.312 59.6289 183.664C59.0209 184.016 58.3329 184.192 57.5649 184.192ZM57.5649 182.816C58.0022 182.816 58.3969 182.709 58.7489 182.496C59.1115 182.283 59.3995 181.968 59.6129 181.552C59.8369 181.125 59.9489 180.597 59.9489 179.968C59.9489 179.339 59.8422 178.816 59.6289 178.4C59.4155 177.973 59.1275 177.653 58.7649 177.44C58.4129 177.227 58.0235 177.12 57.5969 177.12C57.1702 177.12 56.7755 177.227 56.4129 177.44C56.0502 177.653 55.7569 177.973 55.5329 178.4C55.3195 178.816 55.2129 179.339 55.2129 179.968C55.2129 180.597 55.3195 181.125 55.5329 181.552C55.7569 181.968 56.0449 182.283 56.3969 182.496C56.7595 182.709 57.1489 182.816 57.5649 182.816ZM63.463 184V175.936H64.903L65.047 177.456C65.2283 177.093 65.463 176.789 65.751 176.544C66.039 176.288 66.375 176.091 66.759 175.952C67.1537 175.813 67.6017 175.744 68.103 175.744V177.44H67.527C67.1963 177.44 66.8817 177.483 66.583 177.568C66.2843 177.643 66.0177 177.776 65.783 177.968C65.559 178.16 65.383 178.421 65.255 178.752C65.127 179.083 65.063 179.493 65.063 179.984V184H63.463ZM75.0261 184V174.608L73.0741 175.104V173.904L75.6181 172.8H76.6581V184H75.0261ZM78.7721 184V182.848C79.5188 182.272 80.2281 181.691 80.9001 181.104C81.5721 180.517 82.1695 179.936 82.6921 179.36C83.2255 178.773 83.6415 178.203 83.9401 177.648C84.2388 177.083 84.3881 176.544 84.3881 176.032C84.3881 175.669 84.3241 175.333 84.1961 175.024C84.0681 174.715 83.8655 174.464 83.5881 174.272C83.3108 174.069 82.9321 173.968 82.4521 173.968C81.9935 173.968 81.6095 174.069 81.3001 174.272C81.0015 174.475 80.7721 174.747 80.6121 175.088C80.4628 175.419 80.3881 175.787 80.3881 176.192H78.8361C78.8468 175.424 79.0121 174.773 79.3321 174.24C79.6521 173.707 80.0841 173.301 80.6281 173.024C81.1828 172.747 81.8015 172.608 82.4841 172.608C83.1988 172.608 83.8175 172.741 84.3401 173.008C84.8628 173.264 85.2681 173.643 85.5561 174.144C85.8441 174.635 85.9881 175.237 85.9881 175.952C85.9881 176.464 85.8868 176.976 85.6841 177.488C85.4815 177.989 85.2041 178.48 84.8521 178.96C84.5108 179.44 84.1268 179.904 83.7001 180.352C83.2735 180.789 82.8308 181.205 82.3721 181.6C81.9241 181.995 81.4921 182.352 81.0761 182.672H86.3401V184H78.7721ZM89.5105 184V174.608L87.5585 175.104V173.904L90.1025 172.8H91.1425V184H89.5105ZM98.3925 184.192C97.2938 184.192 96.3445 183.952 95.5445 183.472C94.7552 182.981 94.1418 182.304 93.7045 181.44C93.2778 180.565 93.0645 179.552 93.0645 178.4C93.0645 177.259 93.2778 176.251 93.7045 175.376C94.1418 174.501 94.7552 173.824 95.5445 173.344C96.3445 172.853 97.2938 172.608 98.3925 172.608C99.7045 172.608 100.766 172.923 101.577 173.552C102.398 174.181 102.921 175.067 103.145 176.208H101.385C101.225 175.547 100.894 175.019 100.392 174.624C99.9018 174.229 99.2352 174.032 98.3925 174.032C97.6352 174.032 96.9792 174.208 96.4245 174.56C95.8698 174.912 95.4432 175.413 95.1445 176.064C94.8458 176.715 94.6965 177.493 94.6965 178.4C94.6965 179.307 94.8458 180.091 95.1445 180.752C95.4432 181.403 95.8698 181.904 96.4245 182.256C96.9792 182.597 97.6352 182.768 98.3925 182.768C99.2352 182.768 99.9018 182.581 100.392 182.208C100.894 181.824 101.225 181.307 101.385 180.656H103.145C102.921 181.765 102.398 182.635 101.577 183.264C100.766 183.883 99.7045 184.192 98.3925 184.192Z" fill="#252322"/>
<path d="M34.9164 207V197.304L32.9964 197.784V196.824L35.3644 195.8H36.2764V207H34.9164ZM38.4928 207V206.056C39.2501 205.459 39.9701 204.856 40.6528 204.248C41.3461 203.64 41.9594 203.037 42.4928 202.44C43.0261 201.832 43.4421 201.24 43.7408 200.664C44.0501 200.088 44.2048 199.533 44.2048 199C44.2048 198.605 44.1354 198.243 43.9968 197.912C43.8581 197.571 43.6341 197.293 43.3248 197.08C43.0261 196.867 42.6208 196.76 42.1088 196.76C41.6074 196.76 41.1914 196.872 40.8608 197.096C40.5301 197.309 40.2794 197.597 40.1088 197.96C39.9488 198.312 39.8688 198.701 39.8688 199.128H38.5728C38.5834 198.392 38.7381 197.763 39.0368 197.24C39.3461 196.707 39.7674 196.301 40.3008 196.024C40.8341 195.747 41.4421 195.608 42.1248 195.608C42.7968 195.608 43.3888 195.736 43.9008 195.992C44.4128 196.237 44.8128 196.605 45.1008 197.096C45.3994 197.587 45.5487 198.205 45.5487 198.952C45.5487 199.475 45.4368 199.997 45.2128 200.52C44.9994 201.043 44.7114 201.555 44.3488 202.056C43.9861 202.547 43.5808 203.021 43.1328 203.48C42.6954 203.939 42.2421 204.371 41.7728 204.776C41.3141 205.181 40.8821 205.549 40.4768 205.88H45.9328V207H38.4928ZM48.3024 207V197.688C48.3024 197.176 48.3877 196.76 48.5584 196.44C48.729 196.109 48.9797 195.869 49.3104 195.72C49.6517 195.56 50.0677 195.48 50.5584 195.48H51.4704V196.632H50.7664C50.3717 196.632 50.0837 196.712 49.9024 196.872C49.7317 197.032 49.6464 197.315 49.6464 197.72V207H48.3024ZM47.0704 200.072V198.936H51.6784V200.072H47.0704ZM56.4599 207C55.9799 207 55.5639 206.925 55.2119 206.776C54.8599 206.627 54.5879 206.376 54.3959 206.024C54.2145 205.661 54.1239 205.176 54.1239 204.568V200.072H52.7159V198.936H54.1239L54.2999 196.984H55.4679V198.936H57.8039V200.072H55.4679V204.568C55.4679 205.069 55.5692 205.411 55.7719 205.592C55.9745 205.763 56.3319 205.848 56.8439 205.848H57.7079V207H56.4599ZM66.4315 207.192C65.7808 207.192 65.2368 207.08 64.7995 206.856C64.3622 206.621 64.0368 206.317 63.8235 205.944C63.6102 205.56 63.5035 205.144 63.5035 204.696C63.5035 204.152 63.6422 203.693 63.9195 203.32C64.2075 202.936 64.6075 202.648 65.1195 202.456C65.6422 202.253 66.2555 202.152 66.9595 202.152H69.0875C69.0875 201.651 69.0075 201.235 68.8475 200.904C68.6982 200.563 68.4742 200.307 68.1755 200.136C67.8875 199.965 67.5248 199.88 67.0875 199.88C66.5755 199.88 66.1328 200.008 65.7595 200.264C65.3862 200.52 65.1568 200.899 65.0715 201.4H63.6955C63.7595 200.824 63.9515 200.344 64.2715 199.96C64.6022 199.565 65.0182 199.267 65.5195 199.064C66.0208 198.851 66.5435 198.744 67.0875 198.744C67.8342 198.744 68.4528 198.883 68.9435 199.16C69.4448 199.427 69.8182 199.805 70.0635 200.296C70.3088 200.776 70.4315 201.347 70.4315 202.008V207H69.2315L69.1515 205.576C69.0448 205.8 68.9062 206.013 68.7355 206.216C68.5755 206.408 68.3835 206.579 68.1595 206.728C67.9355 206.867 67.6795 206.979 67.3915 207.064C67.1142 207.149 66.7942 207.192 66.4315 207.192ZM66.6395 206.056C67.0128 206.056 67.3488 205.981 67.6475 205.832C67.9568 205.672 68.2182 205.459 68.4315 205.192C68.6448 204.915 68.8048 204.611 68.9115 204.28C69.0288 203.949 69.0875 203.603 69.0875 203.24V203.192H67.0715C66.5488 203.192 66.1275 203.256 65.8075 203.384C65.4875 203.501 65.2582 203.672 65.1195 203.896C64.9808 204.109 64.9115 204.355 64.9115 204.632C64.9115 204.92 64.9755 205.171 65.1035 205.384C65.2422 205.597 65.4395 205.763 65.6955 205.88C65.9622 205.997 66.2768 206.056 66.6395 206.056ZM73.9864 207L71.6184 198.936H72.9624L74.8024 205.736H74.5624L76.5624 198.936H78.0824L80.1144 205.72L79.8584 205.736L81.6824 198.936H83.0424L80.6904 207H79.3144L77.2024 199.896H77.4744L75.3624 207H73.9864ZM86.9003 207.192C86.2496 207.192 85.7056 207.08 85.2682 206.856C84.8309 206.621 84.5056 206.317 84.2923 205.944C84.0789 205.56 83.9723 205.144 83.9723 204.696C83.9723 204.152 84.1109 203.693 84.3883 203.32C84.6763 202.936 85.0763 202.648 85.5883 202.456C86.1109 202.253 86.7243 202.152 87.4283 202.152H89.5563C89.5563 201.651 89.4763 201.235 89.3163 200.904C89.1669 200.563 88.9429 200.307 88.6443 200.136C88.3563 199.965 87.9936 199.88 87.5563 199.88C87.0443 199.88 86.6016 200.008 86.2283 200.264C85.8549 200.52 85.6256 200.899 85.5403 201.4H84.1643C84.2283 200.824 84.4203 200.344 84.7403 199.96C85.0709 199.565 85.4869 199.267 85.9883 199.064C86.4896 198.851 87.0123 198.744 87.5563 198.744C88.3029 198.744 88.9216 198.883 89.4123 199.16C89.9136 199.427 90.2869 199.805 90.5323 200.296C90.7776 200.776 90.9003 201.347 90.9003 202.008V207H89.7003L89.6203 205.576C89.5136 205.8 89.3749 206.013 89.2043 206.216C89.0443 206.408 88.8523 206.579 88.6283 206.728C88.4043 206.867 88.1483 206.979 87.8602 207.064C87.5829 207.149 87.2629 207.192 86.9003 207.192ZM87.1083 206.056C87.4816 206.056 87.8176 205.981 88.1163 205.832C88.4256 205.672 88.6869 205.459 88.9003 205.192C89.1136 204.915 89.2736 204.611 89.3803 204.28C89.4976 203.949 89.5563 203.603 89.5563 203.24V203.192H87.5403C87.0176 203.192 86.5963 203.256 86.2763 203.384C85.9563 203.501 85.7269 203.672 85.5883 203.896C85.4496 204.109 85.3803 204.355 85.3803 204.632C85.3803 204.92 85.4443 205.171 85.5723 205.384C85.7109 205.597 85.9083 205.763 86.1643 205.88C86.4309 205.997 86.7456 206.056 87.1083 206.056ZM93.625 210.52L95.593 206.104H95.129L91.961 198.936H93.417L96.041 205.096L98.793 198.936H100.185L95.033 210.52H93.625Z" fill="#7C7C7E"/>
<rect x="236" y="156" width="68" height="68" rx="12" fill="#43E98A"/>
<path d="M266.5 195.586L260.207 189.293C259.817 188.902 259.183 188.902 258.793 189.293C258.402 189.683 258.402 190.317 258.793 190.707L265.793 197.707C266.183 198.098 266.817 198.098 267.207 197.707L281.207 183.707C281.598 183.317 281.598 182.683 281.207 182.293C280.817 181.902 280.183 181.902 279.793 182.293L266.5 195.586Z" fill="#0F522C"/>
<rect x="308" y="156" width="68" height="68" rx="12" fill="#52A1FF"/>
<path d="M337.264 179.104C337.045 178.498 336.377 178.184 335.771 178.403C335.165 178.622 334.851 179.29 335.07 179.896L337.696 187.169C337.86 187.624 337.582 188.119 337.107 188.216C336.729 188.292 336.35 188.085 336.21 187.726L333.754 181.41C333.521 180.81 332.845 180.512 332.244 180.746C331.644 180.98 331.346 181.656 331.58 182.256L335.265 191.732C333.28 191.518 331.862 192.023 331.007 192.512C330.508 192.797 330.275 193.323 330.347 193.837C330.416 194.323 330.742 194.732 331.195 194.93C332.754 195.612 336.313 197.366 339.36 200.273C340.556 201.414 342.302 201.989 343.983 201.486L347.248 200.509C348.218 200.219 349.026 199.475 349.319 198.453C349.669 197.231 350.167 195.163 350.167 193.208C350.167 191.867 349.696 190.192 349.267 188.927C348.419 186.423 347.469 183.95 346.603 181.451C346.391 180.842 345.727 180.52 345.118 180.731C344.509 180.942 344.187 181.607 344.398 182.216L345.557 185.557C345.719 186.025 345.432 186.529 344.946 186.627C344.548 186.708 344.15 186.484 344.013 186.101L341.932 180.274C341.716 179.667 341.048 179.351 340.441 179.568C339.834 179.785 339.518 180.452 339.735 181.059L341.623 186.345C341.791 186.815 341.503 187.325 341.013 187.424C340.615 187.505 340.217 187.281 340.079 186.899L337.264 179.104ZM349.74 178.709C350.015 178.312 350.56 178.214 350.957 178.49C351.9 179.144 352.682 180.29 353.172 181.554C353.666 182.831 353.906 184.336 353.654 185.776C353.57 186.252 353.117 186.57 352.641 186.487C352.165 186.404 351.846 185.95 351.93 185.474C352.116 184.409 351.944 183.23 351.54 182.186C351.131 181.13 350.526 180.321 349.959 179.927C349.562 179.652 349.464 179.106 349.74 178.709ZM349.348 180.945C349.019 180.592 348.465 180.572 348.112 180.902C347.758 181.231 347.739 181.785 348.068 182.138C348.555 182.661 349 183.293 349 184.458C349 184.942 349.392 185.333 349.875 185.333C350.358 185.333 350.75 184.942 350.75 184.458C350.75 182.707 350.024 181.67 349.348 180.945Z" fill="#173A62"/>
<rect x="16.5" y="236.5" width="215" height="67" rx="11.5" fill="white"/>
<rect x="16.5" y="236.5" width="215" height="67" rx="11.5" stroke="#D4D4D4"/>
<path d="M33.1836 264V252.8H36.6236C37.925 252.8 39.0023 253.029 39.8556 253.488C40.709 253.947 41.3383 254.597 41.7436 255.44C42.1596 256.272 42.3676 257.264 42.3676 258.416C42.3676 259.568 42.1596 260.56 41.7436 261.392C41.3383 262.224 40.709 262.869 39.8556 263.328C39.013 263.776 37.9356 264 36.6236 264H33.1836ZM34.7836 262.656H36.5596C37.5943 262.656 38.4156 262.485 39.0236 262.144C39.6316 261.803 40.0636 261.317 40.3196 260.688C40.5863 260.048 40.7196 259.291 40.7196 258.416C40.7196 257.531 40.5863 256.768 40.3196 256.128C40.0636 255.488 39.6316 254.997 39.0236 254.656C38.4156 254.315 37.5943 254.144 36.5596 254.144H34.7836V262.656ZM47.893 264.192C47.1357 264.192 46.453 264.016 45.845 263.664C45.2477 263.312 44.773 262.821 44.421 262.192C44.0797 261.552 43.909 260.816 43.909 259.984C43.909 259.131 44.085 258.389 44.437 257.76C44.789 257.12 45.269 256.624 45.877 256.272C46.485 255.92 47.1677 255.744 47.925 255.744C48.693 255.744 49.3757 255.92 49.973 256.272C50.5703 256.624 51.0397 257.115 51.381 257.744C51.733 258.373 51.909 259.115 51.909 259.968C51.909 260.821 51.733 261.563 51.381 262.192C51.0397 262.821 50.565 263.312 49.957 263.664C49.349 264.016 48.661 264.192 47.893 264.192ZM47.893 262.816C48.3303 262.816 48.725 262.709 49.077 262.496C49.4397 262.283 49.7277 261.968 49.941 261.552C50.165 261.125 50.277 260.597 50.277 259.968C50.277 259.339 50.1703 258.816 49.957 258.4C49.7437 257.973 49.4557 257.653 49.093 257.44C48.741 257.227 48.3517 257.12 47.925 257.12C47.4983 257.12 47.1037 257.227 46.741 257.44C46.3783 257.653 46.085 257.973 45.861 258.4C45.6477 258.816 45.541 259.339 45.541 259.968C45.541 260.597 45.6477 261.125 45.861 261.552C46.085 261.968 46.373 262.283 46.725 262.496C47.0877 262.709 47.477 262.816 47.893 262.816ZM57.4711 264.192C56.7138 264.192 56.0311 264.016 55.4231 263.664C54.8258 263.312 54.3511 262.821 53.9991 262.192C53.6578 261.552 53.4871 260.816 53.4871 259.984C53.4871 259.131 53.6631 258.389 54.0151 257.76C54.3671 257.12 54.8471 256.624 55.4551 256.272C56.0631 255.92 56.7458 255.744 57.5031 255.744C58.2711 255.744 58.9538 255.92 59.5511 256.272C60.1485 256.624 60.6178 257.115 60.9591 257.744C61.3111 258.373 61.4871 259.115 61.4871 259.968C61.4871 260.821 61.3111 261.563 60.9591 262.192C60.6178 262.821 60.1431 263.312 59.5351 263.664C58.9271 264.016 58.2391 264.192 57.4711 264.192ZM57.4711 262.816C57.9085 262.816 58.3031 262.709 58.6551 262.496C59.0178 262.283 59.3058 261.968 59.5191 261.552C59.7431 261.125 59.8551 260.597 59.8551 259.968C59.8551 259.339 59.7485 258.816 59.5351 258.4C59.3218 257.973 59.0338 257.653 58.6711 257.44C58.3191 257.227 57.9298 257.12 57.5031 257.12C57.0765 257.12 56.6818 257.227 56.3191 257.44C55.9565 257.653 55.6631 257.973 55.4391 258.4C55.2258 258.816 55.1191 259.339 55.1191 259.968C55.1191 260.597 55.2258 261.125 55.4391 261.552C55.6631 261.968 55.9511 262.283 56.3031 262.496C56.6658 262.709 57.0551 262.816 57.4711 262.816ZM63.3693 264V255.936H64.8093L64.9533 257.456C65.1346 257.093 65.3693 256.789 65.6573 256.544C65.9453 256.288 66.2813 256.091 66.6653 255.952C67.0599 255.813 67.5079 255.744 68.0093 255.744V257.44H67.4333C67.1026 257.44 66.7879 257.483 66.4893 257.568C66.1906 257.643 65.9239 257.776 65.6893 257.968C65.4653 258.16 65.2893 258.421 65.1613 258.752C65.0333 259.083 64.9693 259.493 64.9693 259.984V264H63.3693ZM74.9324 264V254.608L72.9804 255.104V253.904L75.5244 252.8H76.5644V264H74.9324ZM78.6784 264V262.848C79.425 262.272 80.1344 261.691 80.8064 261.104C81.4784 260.517 82.0757 259.936 82.5984 259.36C83.1317 258.773 83.5477 258.203 83.8464 257.648C84.145 257.083 84.2944 256.544 84.2944 256.032C84.2944 255.669 84.2304 255.333 84.1024 255.024C83.9744 254.715 83.7717 254.464 83.4944 254.272C83.217 254.069 82.8384 253.968 82.3584 253.968C81.8997 253.968 81.5157 254.069 81.2064 254.272C80.9077 254.475 80.6784 254.747 80.5184 255.088C80.369 255.419 80.2944 255.787 80.2944 256.192H78.7424C78.753 255.424 78.9184 254.773 79.2384 254.24C79.5584 253.707 79.9904 253.301 80.5344 253.024C81.089 252.747 81.7077 252.608 82.3904 252.608C83.105 252.608 83.7237 252.741 84.2464 253.008C84.769 253.264 85.1744 253.643 85.4624 254.144C85.7504 254.635 85.8944 255.237 85.8944 255.952C85.8944 256.464 85.793 256.976 85.5904 257.488C85.3877 257.989 85.1104 258.48 84.7584 258.96C84.417 259.44 84.033 259.904 83.6064 260.352C83.1797 260.789 82.737 261.205 82.2784 261.6C81.8304 261.995 81.3984 262.352 80.9824 262.672H86.2464V264H78.6784ZM89.4168 264V254.608L87.4648 255.104V253.904L90.0088 252.8H91.0488V264H89.4168ZM98.2988 264.192C97.2001 264.192 96.2508 263.952 95.4508 263.472C94.6614 262.981 94.0481 262.304 93.6108 261.44C93.1841 260.565 92.9708 259.552 92.9708 258.4C92.9708 257.259 93.1841 256.251 93.6108 255.376C94.0481 254.501 94.6614 253.824 95.4508 253.344C96.2508 252.853 97.2001 252.608 98.2988 252.608C99.6108 252.608 100.672 252.923 101.483 253.552C102.304 254.181 102.827 255.067 103.051 256.208H101.291C101.131 255.547 100.8 255.019 100.299 254.624C99.8081 254.229 99.1414 254.032 98.2988 254.032C97.5414 254.032 96.8854 254.208 96.3307 254.56C95.7761 254.912 95.3494 255.413 95.0508 256.064C94.7521 256.715 94.6028 257.493 94.6028 258.4C94.6028 259.307 94.7521 260.091 95.0508 260.752C95.3494 261.403 95.7761 261.904 96.3307 262.256C96.8854 262.597 97.5414 262.768 98.2988 262.768C99.1414 262.768 99.8081 262.581 100.299 262.208C100.8 261.824 101.131 261.307 101.291 260.656H103.051C102.827 261.765 102.304 262.635 101.483 263.264C100.672 263.883 99.6108 264.192 98.2988 264.192ZM104.981 259.952V258.608H111.445V259.952H104.981ZM112.589 264L116.701 252.8H118.445L122.557 264H120.845L117.565 254.72L114.269 264H112.589ZM114.445 261.232L114.893 259.952H120.157L120.605 261.232H114.445Z" fill="#252322"/>
<path d="M33.1334 287V286.056C33.8907 285.459 34.6107 284.856 35.2934 284.248C35.9867 283.64 36.6 283.037 37.1334 282.44C37.6667 281.832 38.0827 281.24 38.3814 280.664C38.6907 280.088 38.8454 279.533 38.8454 279C38.8454 278.605 38.776 278.243 38.6374 277.912C38.4987 277.571 38.2747 277.293 37.9654 277.08C37.6667 276.867 37.2614 276.76 36.7494 276.76C36.248 276.76 35.832 276.872 35.5014 277.096C35.1707 277.309 34.92 277.597 34.7494 277.96C34.5894 278.312 34.5094 278.701 34.5094 279.128H33.2134C33.224 278.392 33.3787 277.763 33.6774 277.24C33.9867 276.707 34.408 276.301 34.9414 276.024C35.4747 275.747 36.0827 275.608 36.7654 275.608C37.4374 275.608 38.0294 275.736 38.5414 275.992C39.0534 276.237 39.4534 276.605 39.7414 277.096C40.04 277.587 40.1894 278.205 40.1894 278.952C40.1894 279.475 40.0774 279.997 39.8534 280.52C39.64 281.043 39.352 281.555 38.9894 282.056C38.6267 282.547 38.2214 283.021 37.7734 283.48C37.336 283.939 36.8827 284.371 36.4134 284.776C35.9547 285.181 35.5227 285.549 35.1174 285.88H40.5734V287H33.1334ZM46.6599 287.192C45.6785 287.192 44.8305 286.952 44.1159 286.472C43.4119 285.981 42.8732 285.304 42.4999 284.44C42.1265 283.565 41.9399 282.552 41.9399 281.4C41.9399 280.248 42.1265 279.24 42.4999 278.376C42.8732 277.501 43.4119 276.824 44.1159 276.344C44.8305 275.853 45.6785 275.608 46.6599 275.608C47.6412 275.608 48.4785 275.853 49.1719 276.344C49.8759 276.824 50.4145 277.501 50.7879 278.376C51.1612 279.24 51.3479 280.248 51.3479 281.4C51.3479 282.552 51.1612 283.565 50.7879 284.44C50.4145 285.304 49.8759 285.981 49.1719 286.472C48.4785 286.952 47.6412 287.192 46.6599 287.192ZM46.6439 286.008C47.2839 286.008 47.8545 285.827 48.3559 285.464C48.8572 285.091 49.2519 284.563 49.5399 283.88C49.8279 283.187 49.9719 282.36 49.9719 281.4C49.9719 280.44 49.8279 279.619 49.5399 278.936C49.2519 278.243 48.8572 277.715 48.3559 277.352C47.8545 276.989 47.2839 276.808 46.6439 276.808C46.0039 276.808 45.4279 276.989 44.9159 277.352C44.4145 277.715 44.0199 278.243 43.7319 278.936C43.4545 279.619 43.3159 280.44 43.3159 281.4C43.3159 282.36 43.4545 283.187 43.7319 283.88C44.0199 284.563 44.4145 285.091 44.9159 285.464C45.4279 285.827 46.0039 286.008 46.6439 286.008ZM53.6774 287V277.688C53.6774 277.176 53.7627 276.76 53.9334 276.44C54.104 276.109 54.3547 275.869 54.6854 275.72C55.0267 275.56 55.4427 275.48 55.9334 275.48H56.8454V276.632H56.1414C55.7467 276.632 55.4587 276.712 55.2774 276.872C55.1067 277.032 55.0214 277.315 55.0214 277.72V287H53.6774ZM52.4454 280.072V278.936H57.0534V280.072H52.4454ZM61.8349 287C61.3549 287 60.9389 286.925 60.5869 286.776C60.2349 286.627 59.9629 286.376 59.7709 286.024C59.5895 285.661 59.4989 285.176 59.4989 284.568V280.072H58.0909V278.936H59.4989L59.6749 276.984H60.8429V278.936H63.1789V280.072H60.8429V284.568C60.8429 285.069 60.9442 285.411 61.1469 285.592C61.3495 285.763 61.7069 285.848 62.2189 285.848H63.0829V287H61.8349ZM71.8065 287.192C71.1558 287.192 70.6118 287.08 70.1745 286.856C69.7372 286.621 69.4118 286.317 69.1985 285.944C68.9852 285.56 68.8785 285.144 68.8785 284.696C68.8785 284.152 69.0172 283.693 69.2945 283.32C69.5825 282.936 69.9825 282.648 70.4945 282.456C71.0172 282.253 71.6305 282.152 72.3345 282.152H74.4625C74.4625 281.651 74.3825 281.235 74.2225 280.904C74.0732 280.563 73.8492 280.307 73.5505 280.136C73.2625 279.965 72.8998 279.88 72.4625 279.88C71.9505 279.88 71.5078 280.008 71.1345 280.264C70.7612 280.52 70.5318 280.899 70.4465 281.4H69.0705C69.1345 280.824 69.3265 280.344 69.6465 279.96C69.9772 279.565 70.3932 279.267 70.8945 279.064C71.3958 278.851 71.9185 278.744 72.4625 278.744C73.2092 278.744 73.8278 278.883 74.3185 279.16C74.8198 279.427 75.1932 279.805 75.4385 280.296C75.6838 280.776 75.8065 281.347 75.8065 282.008V287H74.6065L74.5265 285.576C74.4198 285.8 74.2812 286.013 74.1105 286.216C73.9505 286.408 73.7585 286.579 73.5345 286.728C73.3105 286.867 73.0545 286.979 72.7665 287.064C72.4892 287.149 72.1692 287.192 71.8065 287.192ZM72.0145 286.056C72.3878 286.056 72.7238 285.981 73.0225 285.832C73.3318 285.672 73.5932 285.459 73.8065 285.192C74.0198 284.915 74.1798 284.611 74.2865 284.28C74.4038 283.949 74.4625 283.603 74.4625 283.24V283.192H72.4465C71.9238 283.192 71.5025 283.256 71.1825 283.384C70.8625 283.501 70.6332 283.672 70.4945 283.896C70.3558 284.109 70.2865 284.355 70.2865 284.632C70.2865 284.92 70.3505 285.171 70.4785 285.384C70.6172 285.597 70.8145 285.763 71.0705 285.88C71.3372 285.997 71.6518 286.056 72.0145 286.056ZM79.3614 287L76.9934 278.936H78.3374L80.1774 285.736H79.9374L81.9374 278.936H83.4574L85.4894 285.72L85.2334 285.736L87.0574 278.936H88.4174L86.0654 287H84.6894L82.5774 279.896H82.8494L80.7374 287H79.3614ZM92.2753 287.192C91.6246 287.192 91.0806 287.08 90.6432 286.856C90.2059 286.621 89.8806 286.317 89.6673 285.944C89.4539 285.56 89.3473 285.144 89.3473 284.696C89.3473 284.152 89.4859 283.693 89.7633 283.32C90.0513 282.936 90.4513 282.648 90.9633 282.456C91.4859 282.253 92.0993 282.152 92.8033 282.152H94.9313C94.9313 281.651 94.8513 281.235 94.6913 280.904C94.5419 280.563 94.3179 280.307 94.0193 280.136C93.7313 279.965 93.3686 279.88 92.9313 279.88C92.4193 279.88 91.9766 280.008 91.6033 280.264C91.2299 280.52 91.0006 280.899 90.9153 281.4H89.5393C89.6033 280.824 89.7953 280.344 90.1153 279.96C90.4459 279.565 90.8619 279.267 91.3633 279.064C91.8646 278.851 92.3873 278.744 92.9313 278.744C93.6779 278.744 94.2966 278.883 94.7873 279.16C95.2886 279.427 95.6619 279.805 95.9073 280.296C96.1526 280.776 96.2753 281.347 96.2753 282.008V287H95.0753L94.9953 285.576C94.8886 285.8 94.7499 286.013 94.5793 286.216C94.4193 286.408 94.2273 286.579 94.0033 286.728C93.7793 286.867 93.5233 286.979 93.2352 287.064C92.9579 287.149 92.6379 287.192 92.2753 287.192ZM92.4833 286.056C92.8566 286.056 93.1926 285.981 93.4913 285.832C93.8006 285.672 94.0619 285.459 94.2753 285.192C94.4886 284.915 94.6486 284.611 94.7553 284.28C94.8726 283.949 94.9313 283.603 94.9313 283.24V283.192H92.9153C92.3926 283.192 91.9713 283.256 91.6513 283.384C91.3313 283.501 91.1019 283.672 90.9633 283.896C90.8246 284.109 90.7553 284.355 90.7553 284.632C90.7553 284.92 90.8193 285.171 90.9473 285.384C91.0859 285.597 91.2833 285.763 91.5393 285.88C91.8059 285.997 92.1206 286.056 92.4833 286.056ZM99 290.52L100.968 286.104H100.504L97.336 278.936H98.792L101.416 285.096L104.168 278.936H105.56L100.408 290.52H99Z" fill="#7C7C7E"/>
<rect x="236" y="236" width="68" height="68" rx="12" fill="#43E98A"/>
<path d="M274 261.5C274 259.843 275.343 258.5 277 258.5C278.657 258.5 280 259.843 280 261.5V262.5C280 262.914 280.336 263.25 280.75 263.25C281.164 263.25 281.5 262.914 281.5 262.5V261.5C281.5 259.015 279.485 257 277 257C274.515 257 272.5 259.015 272.5 261.5V264H263.75C261.679 264 260 265.679 260 267.75V277.25C260 279.321 261.679 281 263.75 281H275.25C277.321 281 279 279.321 279 277.25V267.75C279 265.679 277.321 264 275.25 264H274V261.5ZM269.5 274C268.672 274 268 273.328 268 272.5C268 271.672 268.672 271 269.5 271C270.328 271 271 271.672 271 272.5C271 273.328 270.328 274 269.5 274Z" fill="#0F522C"/>
<rect x="308" y="236" width="68" height="68" rx="12" fill="#52A1FF"/>
<path d="M337.264 259.104C337.045 258.498 336.377 258.184 335.771 258.403C335.165 258.622 334.851 259.29 335.07 259.896L337.696 267.169C337.86 267.624 337.582 268.119 337.107 268.216C336.729 268.292 336.35 268.085 336.21 267.726L333.754 261.41C333.521 260.81 332.845 260.512 332.244 260.746C331.644 260.98 331.346 261.656 331.58 262.256L335.265 271.732C333.28 271.518 331.862 272.023 331.007 272.512C330.508 272.797 330.275 273.323 330.347 273.837C330.416 274.323 330.742 274.732 331.195 274.93C332.754 275.612 336.313 277.366 339.36 280.273C340.556 281.414 342.302 281.989 343.983 281.486L347.248 280.509C348.218 280.219 349.026 279.475 349.319 278.453C349.669 277.231 350.167 275.163 350.167 273.208C350.167 271.867 349.696 270.192 349.267 268.927C348.419 266.423 347.469 263.95 346.603 261.451C346.391 260.842 345.727 260.52 345.118 260.731C344.509 260.942 344.187 261.607 344.398 262.216L345.557 265.557C345.719 266.025 345.432 266.529 344.946 266.627C344.548 266.708 344.15 266.484 344.013 266.101L341.932 260.274C341.716 259.667 341.048 259.351 340.441 259.568C339.834 259.785 339.518 260.452 339.735 261.059L341.623 266.345C341.791 266.815 341.503 267.325 341.013 267.424C340.615 267.505 340.217 267.281 340.079 266.899L337.264 259.104ZM349.74 258.709C350.015 258.312 350.56 258.214 350.957 258.49C351.9 259.144 352.682 260.29 353.172 261.554C353.666 262.831 353.906 264.336 353.654 265.776C353.57 266.252 353.117 266.57 352.641 266.487C352.165 266.404 351.846 265.95 351.93 265.474C352.116 264.409 351.944 263.23 351.54 262.186C351.131 261.13 350.526 260.321 349.959 259.927C349.562 259.652 349.464 259.106 349.74 258.709ZM349.348 260.945C349.019 260.592 348.465 260.572 348.112 260.902C347.758 261.231 347.739 261.785 348.068 262.138C348.555 262.661 349 263.293 349 264.458C349 264.942 349.392 265.333 349.875 265.333C350.358 265.333 350.75 264.942 350.75 264.458C350.75 262.707 350.024 261.67 349.348 260.945Z" fill="#173A62"/>
<path d="M22.6295 352.192C21.5522 352.192 20.6028 351.952 19.7815 351.472C18.9708 350.981 18.3362 350.304 17.8775 349.44C17.4295 348.565 17.2055 347.552 17.2055 346.4C17.2055 345.259 17.4295 344.256 17.8775 343.392C18.3362 342.517 18.9708 341.835 19.7815 341.344C20.6028 340.853 21.5522 340.608 22.6295 340.608C23.7282 340.608 24.6828 340.853 25.4935 341.344C26.3042 341.835 26.9335 342.517 27.3815 343.392C27.8402 344.256 28.0695 345.259 28.0695 346.4C28.0695 347.552 27.8402 348.565 27.3815 349.44C26.9335 350.304 26.3042 350.981 25.4935 351.472C24.6828 351.952 23.7282 352.192 22.6295 352.192ZM22.6295 351.008C23.4402 351.008 24.1495 350.827 24.7575 350.464C25.3762 350.091 25.8508 349.563 26.1815 348.88C26.5228 348.187 26.6935 347.36 26.6935 346.4C26.6935 345.44 26.5228 344.619 26.1815 343.936C25.8508 343.243 25.3762 342.715 24.7575 342.352C24.1495 341.989 23.4402 341.808 22.6295 341.808C21.8295 341.808 21.1202 341.989 20.5015 342.352C19.8935 342.715 19.4188 343.243 19.0775 343.936C18.7468 344.619 18.5815 345.44 18.5815 346.4C18.5815 347.36 18.7468 348.187 19.0775 348.88C19.4188 349.563 19.8935 350.091 20.5015 350.464C21.1202 350.827 21.8295 351.008 22.6295 351.008ZM32.8761 352.192C32.2575 352.192 31.7135 352.069 31.2441 351.824C30.7855 351.579 30.4281 351.2 30.1721 350.688C29.9268 350.176 29.8041 349.536 29.8041 348.768V343.936H31.1481V348.624C31.1481 349.424 31.3241 350.027 31.6761 350.432C32.0281 350.837 32.5241 351.04 33.1641 351.04C33.6121 351.04 34.0175 350.933 34.3801 350.72C34.7428 350.496 35.0255 350.181 35.2281 349.776C35.4415 349.36 35.5481 348.853 35.5481 348.256V343.936H36.8921V352H35.6761L35.5961 350.592C35.3508 351.093 34.9881 351.488 34.5081 351.776C34.0281 352.053 33.4841 352.192 32.8761 352.192ZM42.288 352C41.808 352 41.392 351.925 41.04 351.776C40.688 351.627 40.416 351.376 40.224 351.024C40.0427 350.661 39.952 350.176 39.952 349.568V345.072H38.544V343.936H39.952L40.128 341.984H41.296V343.936H43.632V345.072H41.296V349.568C41.296 350.069 41.3973 350.411 41.6 350.592C41.8027 350.763 42.16 350.848 42.672 350.848H43.536V352H42.288ZM53.2356 352.192C52.489 352.192 51.817 352.021 51.2196 351.68C50.6223 351.328 50.153 350.837 49.8116 350.208C49.4703 349.568 49.2996 348.827 49.2996 347.984C49.2996 347.12 49.4703 346.373 49.8116 345.744C50.1636 345.104 50.6383 344.613 51.2356 344.272C51.8436 343.92 52.521 343.744 53.2676 343.744C54.0356 343.744 54.713 343.92 55.2996 344.272C55.897 344.613 56.3663 345.104 56.7076 345.744C57.0596 346.373 57.2356 347.115 57.2356 347.968C57.2356 348.821 57.0596 349.568 56.7076 350.208C56.3556 350.837 55.881 351.328 55.2836 351.68C54.6863 352.021 54.0036 352.192 53.2356 352.192ZM53.2516 351.04C53.7103 351.04 54.137 350.928 54.5316 350.704C54.9263 350.469 55.2463 350.123 55.4916 349.664C55.737 349.205 55.8596 348.64 55.8596 347.968C55.8596 347.285 55.737 346.72 55.4916 346.272C55.257 345.813 54.9423 345.472 54.5476 345.248C54.1636 345.013 53.737 344.896 53.2676 344.896C52.8196 344.896 52.393 345.013 51.9876 345.248C51.593 345.472 51.273 345.813 51.0276 346.272C50.793 346.72 50.6756 347.285 50.6756 347.968C50.6756 348.64 50.793 349.205 51.0276 349.664C51.273 350.123 51.5876 350.469 51.9716 350.704C52.3663 350.928 52.793 351.04 53.2516 351.04ZM59.568 352V342.688C59.568 342.176 59.6533 341.76 59.824 341.44C59.9947 341.109 60.2453 340.869 60.576 340.72C60.9173 340.56 61.3333 340.48 61.824 340.48H62.736V341.632H62.032C61.6373 341.632 61.3493 341.712 61.168 341.872C60.9973 342.032 60.912 342.315 60.912 342.72V352H59.568ZM58.336 345.072V343.936H62.944V345.072H58.336ZM68.8875 352V340.8H72.5035C73.3782 340.8 74.0928 340.949 74.6475 341.248C75.2022 341.536 75.6128 341.925 75.8795 342.416C76.1462 342.907 76.2795 343.461 76.2795 344.08C76.2795 344.677 76.1408 345.227 75.8635 345.728C75.5968 346.229 75.1808 346.629 74.6155 346.928C74.0502 347.227 73.3248 347.376 72.4395 347.376H70.2315V352H68.8875ZM74.8075 352L72.3435 346.992H73.8475L76.3915 352H74.8075ZM70.2315 346.32H72.4075C73.2608 346.32 73.8848 346.112 74.2795 345.696C74.6848 345.28 74.8875 344.747 74.8875 344.096C74.8875 343.435 74.6902 342.912 74.2955 342.528C73.9115 342.133 73.2768 341.936 72.3915 341.936H70.2315V346.32ZM80.7128 352.192C80.0621 352.192 79.5181 352.08 79.0807 351.856C78.6434 351.621 78.3181 351.317 78.1048 350.944C77.8914 350.56 77.7848 350.144 77.7848 349.696C77.7848 349.152 77.9234 348.693 78.2008 348.32C78.4888 347.936 78.8888 347.648 79.4008 347.456C79.9234 347.253 80.5368 347.152 81.2408 347.152H83.3688C83.3688 346.651 83.2888 346.235 83.1288 345.904C82.9794 345.563 82.7554 345.307 82.4568 345.136C82.1688 344.965 81.8061 344.88 81.3688 344.88C80.8568 344.88 80.4141 345.008 80.0408 345.264C79.6674 345.52 79.4381 345.899 79.3528 346.4H77.9768C78.0408 345.824 78.2328 345.344 78.5528 344.96C78.8834 344.565 79.2994 344.267 79.8008 344.064C80.3021 343.851 80.8248 343.744 81.3688 343.744C82.1154 343.744 82.7341 343.883 83.2248 344.16C83.7261 344.427 84.0994 344.805 84.3448 345.296C84.5901 345.776 84.7128 346.347 84.7128 347.008V352H83.5128L83.4328 350.576C83.3261 350.8 83.1874 351.013 83.0168 351.216C82.8568 351.408 82.6648 351.579 82.4408 351.728C82.2168 351.867 81.9608 351.979 81.6727 352.064C81.3954 352.149 81.0754 352.192 80.7128 352.192ZM80.9208 351.056C81.2941 351.056 81.6301 350.981 81.9288 350.832C82.2381 350.672 82.4994 350.459 82.7128 350.192C82.9261 349.915 83.0861 349.611 83.1928 349.28C83.3101 348.949 83.3688 348.603 83.3688 348.24V348.192H81.3528C80.8301 348.192 80.4088 348.256 80.0888 348.384C79.7688 348.501 79.5394 348.672 79.4008 348.896C79.2621 349.109 79.1928 349.355 79.1928 349.632C79.1928 349.92 79.2568 350.171 79.3848 350.384C79.5234 350.597 79.7208 350.763 79.9768 350.88C80.2434 350.997 80.5581 351.056 80.9208 351.056ZM86.7919 352V343.936H88.0079L88.0719 345.344C88.3279 344.843 88.6905 344.453 89.1599 344.176C89.6399 343.888 90.1839 343.744 90.7919 343.744C91.4212 343.744 91.9652 343.872 92.4239 344.128C92.8825 344.373 93.2399 344.752 93.4959 345.264C93.7519 345.765 93.8799 346.405 93.8799 347.184V352H92.5359V347.328C92.5359 346.517 92.3545 345.909 91.9919 345.504C91.6399 345.099 91.1385 344.896 90.4879 344.896C90.0399 344.896 89.6399 345.008 89.2879 345.232C88.9359 345.445 88.6532 345.76 88.4399 346.176C88.2372 346.581 88.1359 347.088 88.1359 347.696V352H86.7919ZM99.1634 355.712C98.438 355.712 97.7927 355.616 97.2274 355.424C96.6727 355.243 96.2407 354.96 95.9314 354.576C95.622 354.192 95.4674 353.717 95.4674 353.152C95.4674 352.907 95.5154 352.645 95.6114 352.368C95.718 352.091 95.894 351.819 96.1394 351.552C96.3954 351.285 96.7527 351.045 97.2114 350.832L98.1394 351.376C97.574 351.611 97.206 351.877 97.0354 352.176C96.8647 352.485 96.7794 352.768 96.7794 353.024C96.7794 353.376 96.8807 353.669 97.0834 353.904C97.286 354.139 97.5687 354.315 97.9314 354.432C98.294 354.549 98.7047 354.608 99.1634 354.608C99.622 354.608 100.017 354.544 100.347 354.416C100.678 354.288 100.934 354.107 101.115 353.872C101.297 353.637 101.387 353.36 101.387 353.04C101.387 352.667 101.249 352.352 100.971 352.096C100.694 351.851 100.166 351.707 99.3874 351.664C98.758 351.621 98.23 351.563 97.8034 351.488C97.3767 351.413 97.0247 351.328 96.7474 351.232C96.47 351.125 96.2354 351.008 96.0434 350.88C95.862 350.752 95.6967 350.619 95.5474 350.48V350.112L97.0994 348.576L98.2674 348.992L96.6674 350.432L96.8754 349.872C96.9927 349.957 97.1047 350.037 97.2114 350.112C97.318 350.187 97.462 350.251 97.6434 350.304C97.8247 350.357 98.0754 350.405 98.3954 350.448C98.726 350.491 99.158 350.533 99.6914 350.576C100.427 350.629 101.014 350.757 101.451 350.96C101.899 351.163 102.219 351.435 102.411 351.776C102.614 352.117 102.715 352.523 102.715 352.992C102.715 353.451 102.587 353.883 102.331 354.288C102.086 354.704 101.702 355.045 101.179 355.312C100.657 355.579 99.9847 355.712 99.1634 355.712ZM99.1474 349.472C98.4754 349.472 97.8994 349.344 97.4194 349.088C96.95 348.832 96.5927 348.491 96.3474 348.064C96.102 347.627 95.9794 347.141 95.9794 346.608C95.9794 346.075 96.102 345.595 96.3474 345.168C96.6034 344.741 96.966 344.4 97.4354 344.144C97.9047 343.877 98.4754 343.744 99.1474 343.744C99.8194 343.744 100.39 343.877 100.859 344.144C101.329 344.4 101.686 344.741 101.931 345.168C102.177 345.595 102.299 346.075 102.299 346.608C102.299 347.141 102.177 347.627 101.931 348.064C101.686 348.491 101.329 348.832 100.859 349.088C100.39 349.344 99.8194 349.472 99.1474 349.472ZM99.1474 348.368C99.7234 348.368 100.177 348.219 100.507 347.92C100.838 347.621 101.003 347.184 101.003 346.608C101.003 346.043 100.838 345.611 100.507 345.312C100.177 345.013 99.7234 344.864 99.1474 344.864C98.582 344.864 98.1234 345.013 97.7714 345.312C97.43 345.611 97.2594 346.043 97.2594 346.608C97.2594 347.184 97.43 347.621 97.7714 347.92C98.1127 348.219 98.5714 348.368 99.1474 348.368ZM100.459 345.072L100.059 343.936H103.355V344.944L100.459 345.072ZM108.125 352.192C107.367 352.192 106.695 352.016 106.109 351.664C105.533 351.312 105.079 350.821 104.749 350.192C104.418 349.552 104.253 348.811 104.253 347.968C104.253 347.115 104.413 346.373 104.733 345.744C105.063 345.115 105.522 344.624 106.109 344.272C106.706 343.92 107.389 343.744 108.157 343.744C108.946 343.744 109.613 343.92 110.157 344.272C110.711 344.624 111.133 345.088 111.421 345.664C111.719 346.229 111.869 346.853 111.869 347.536C111.869 347.643 111.869 347.755 111.869 347.872C111.869 347.989 111.863 348.123 111.853 348.272H105.261V347.232H110.557C110.525 346.496 110.279 345.92 109.821 345.504C109.373 345.088 108.807 344.88 108.125 344.88C107.666 344.88 107.239 344.987 106.845 345.2C106.461 345.403 106.151 345.707 105.917 346.112C105.682 346.507 105.565 347.003 105.565 347.6V348.048C105.565 348.709 105.682 349.264 105.917 349.712C106.162 350.16 106.477 350.496 106.861 350.72C107.255 350.944 107.677 351.056 108.125 351.056C108.69 351.056 109.154 350.933 109.517 350.688C109.89 350.432 110.157 350.091 110.317 349.664H111.645C111.517 350.144 111.293 350.576 110.973 350.96C110.653 351.344 110.253 351.648 109.773 351.872C109.303 352.085 108.754 352.192 108.125 352.192Z" fill="#7C7C7E"/>
<path d="M348.606 352V340.8H355.534V341.904H349.95V345.808H355.054V346.896H349.95V350.896H355.534V352H348.606ZM361.125 352.192C360.346 352.192 359.664 352.011 359.077 351.648C358.49 351.275 358.037 350.768 357.717 350.128C357.397 349.488 357.237 348.763 357.237 347.952C357.237 347.141 357.397 346.421 357.717 345.792C358.037 345.152 358.49 344.651 359.077 344.288C359.674 343.925 360.362 343.744 361.141 343.744C361.802 343.744 362.378 343.877 362.869 344.144C363.37 344.411 363.754 344.784 364.021 345.264V340.48H365.365V352H364.149L364.037 350.672C363.866 350.939 363.648 351.189 363.381 351.424C363.114 351.648 362.794 351.835 362.421 351.984C362.048 352.123 361.616 352.192 361.125 352.192ZM361.285 351.024C361.818 351.024 362.288 350.896 362.693 350.64C363.098 350.384 363.413 350.032 363.637 349.584C363.861 349.125 363.973 348.587 363.973 347.968C363.973 347.36 363.861 346.827 363.637 346.368C363.413 345.909 363.098 345.552 362.693 345.296C362.288 345.04 361.818 344.912 361.285 344.912C360.762 344.912 360.298 345.04 359.893 345.296C359.488 345.552 359.173 345.909 358.949 346.368C358.725 346.827 358.613 347.36 358.613 347.968C358.613 348.587 358.725 349.125 358.949 349.584C359.173 350.032 359.488 350.384 359.893 350.64C360.298 350.896 360.762 351.024 361.285 351.024ZM367.732 352V343.936H369.076V352H367.732ZM368.404 342.224C368.138 342.224 367.914 342.139 367.732 341.968C367.562 341.787 367.476 341.563 367.476 341.296C367.476 341.029 367.562 340.816 367.732 340.656C367.914 340.485 368.138 340.4 368.404 340.4C368.66 340.4 368.879 340.485 369.06 340.656C369.242 340.816 369.332 341.029 369.332 341.296C369.332 341.563 369.242 341.787 369.06 341.968C368.879 342.139 368.66 342.224 368.404 342.224ZM374.616 352C374.136 352 373.72 351.925 373.368 351.776C373.016 351.627 372.744 351.376 372.552 351.024C372.371 350.661 372.28 350.176 372.28 349.568V345.072H370.872V343.936H372.28L372.456 341.984H373.624V343.936H375.96V345.072H373.624V349.568C373.624 350.069 373.725 350.411 373.928 350.592C374.131 350.763 374.488 350.848 375 350.848H375.864V352H374.616Z" fill="#7C7C7E"/>
<rect x="16" y="373" width="216" height="70" rx="12" fill="#E6E6E4"/>
<path d="M33.6368 401V389.8H37.0768C38.3781 389.8 39.4554 390.029 40.3088 390.488C41.1621 390.947 41.7914 391.597 42.1968 392.44C42.6128 393.272 42.8208 394.264 42.8208 395.416C42.8208 396.568 42.6128 397.56 42.1968 398.392C41.7914 399.224 41.1621 399.869 40.3088 400.328C39.4661 400.776 38.3888 401 37.0768 401H33.6368ZM35.2368 399.656H37.0128C38.0474 399.656 38.8688 399.485 39.4768 399.144C40.0848 398.803 40.5168 398.317 40.7728 397.688C41.0394 397.048 41.1728 396.291 41.1728 395.416C41.1728 394.531 41.0394 393.768 40.7728 393.128C40.5168 392.488 40.0848 391.997 39.4768 391.656C38.8688 391.315 38.0474 391.144 37.0128 391.144H35.2368V399.656ZM48.3461 401.192C47.5888 401.192 46.9061 401.016 46.2981 400.664C45.7008 400.312 45.2261 399.821 44.8741 399.192C44.5328 398.552 44.3621 397.816 44.3621 396.984C44.3621 396.131 44.5381 395.389 44.8901 394.76C45.2421 394.12 45.7221 393.624 46.3301 393.272C46.9381 392.92 47.6208 392.744 48.3781 392.744C49.1461 392.744 49.8288 392.92 50.4261 393.272C51.0235 393.624 51.4928 394.115 51.8341 394.744C52.1861 395.373 52.3621 396.115 52.3621 396.968C52.3621 397.821 52.1861 398.563 51.8341 399.192C51.4928 399.821 51.0181 400.312 50.4101 400.664C49.8021 401.016 49.1141 401.192 48.3461 401.192ZM48.3461 399.816C48.7835 399.816 49.1781 399.709 49.5301 399.496C49.8928 399.283 50.1808 398.968 50.3941 398.552C50.6181 398.125 50.7301 397.597 50.7301 396.968C50.7301 396.339 50.6235 395.816 50.4101 395.4C50.1968 394.973 49.9088 394.653 49.5461 394.44C49.1941 394.227 48.8048 394.12 48.3781 394.12C47.9515 394.12 47.5568 394.227 47.1941 394.44C46.8315 394.653 46.5381 394.973 46.3141 395.4C46.1008 395.816 45.9941 396.339 45.9941 396.968C45.9941 397.597 46.1008 398.125 46.3141 398.552C46.5381 398.968 46.8261 399.283 47.1781 399.496C47.5408 399.709 47.9301 399.816 48.3461 399.816ZM57.9243 401.192C57.1669 401.192 56.4843 401.016 55.8763 400.664C55.2789 400.312 54.8043 399.821 54.4523 399.192C54.1109 398.552 53.9403 397.816 53.9403 396.984C53.9403 396.131 54.1163 395.389 54.4683 394.76C54.8203 394.12 55.3003 393.624 55.9083 393.272C56.5163 392.92 57.1989 392.744 57.9563 392.744C58.7243 392.744 59.4069 392.92 60.0043 393.272C60.6016 393.624 61.0709 394.115 61.4123 394.744C61.7643 395.373 61.9403 396.115 61.9403 396.968C61.9403 397.821 61.7643 398.563 61.4123 399.192C61.0709 399.821 60.5963 400.312 59.9883 400.664C59.3803 401.016 58.6923 401.192 57.9243 401.192ZM57.9243 399.816C58.3616 399.816 58.7563 399.709 59.1083 399.496C59.4709 399.283 59.7589 398.968 59.9723 398.552C60.1963 398.125 60.3083 397.597 60.3083 396.968C60.3083 396.339 60.2016 395.816 59.9883 395.4C59.7749 394.973 59.4869 394.653 59.1243 394.44C58.7723 394.227 58.3829 394.12 57.9563 394.12C57.5296 394.12 57.1349 394.227 56.7723 394.44C56.4096 394.653 56.1163 394.973 55.8923 395.4C55.6789 395.816 55.5723 396.339 55.5723 396.968C55.5723 397.597 55.6789 398.125 55.8923 398.552C56.1163 398.968 56.4043 399.283 56.7563 399.496C57.1189 399.709 57.5083 399.816 57.9243 399.816ZM63.8224 401V392.936H65.2624L65.4064 394.456C65.5877 394.093 65.8224 393.789 66.1104 393.544C66.3984 393.288 66.7344 393.091 67.1184 392.952C67.513 392.813 67.961 392.744 68.4624 392.744V394.44H67.8864C67.5557 394.44 67.241 394.483 66.9424 394.568C66.6437 394.643 66.377 394.776 66.1424 394.968C65.9184 395.16 65.7424 395.421 65.6144 395.752C65.4864 396.083 65.4224 396.493 65.4224 396.984V401H63.8224ZM75.3855 401V391.608L73.4335 392.104V390.904L75.9775 389.8H77.0175V401H75.3855ZM79.1315 401V399.848C79.8782 399.272 80.5875 398.691 81.2595 398.104C81.9315 397.517 82.5288 396.936 83.0515 396.36C83.5848 395.773 84.0008 395.203 84.2995 394.648C84.5982 394.083 84.7475 393.544 84.7475 393.032C84.7475 392.669 84.6835 392.333 84.5555 392.024C84.4275 391.715 84.2248 391.464 83.9475 391.272C83.6702 391.069 83.2915 390.968 82.8115 390.968C82.3528 390.968 81.9688 391.069 81.6595 391.272C81.3608 391.475 81.1315 391.747 80.9715 392.088C80.8222 392.419 80.7475 392.787 80.7475 393.192H79.1955C79.2062 392.424 79.3715 391.773 79.6915 391.24C80.0115 390.707 80.4435 390.301 80.9875 390.024C81.5422 389.747 82.1608 389.608 82.8435 389.608C83.5582 389.608 84.1768 389.741 84.6995 390.008C85.2222 390.264 85.6275 390.643 85.9155 391.144C86.2035 391.635 86.3475 392.237 86.3475 392.952C86.3475 393.464 86.2462 393.976 86.0435 394.488C85.8408 394.989 85.5635 395.48 85.2115 395.96C84.8702 396.44 84.4862 396.904 84.0595 397.352C83.6328 397.789 83.1902 398.205 82.7315 398.6C82.2835 398.995 81.8515 399.352 81.4355 399.672H86.6995V401H79.1315ZM89.8699 401V391.608L87.9179 392.104V390.904L90.4619 389.8H91.5019V401H89.8699ZM98.7519 401.192C97.6532 401.192 96.7039 400.952 95.9039 400.472C95.1145 399.981 94.5012 399.304 94.0639 398.44C93.6372 397.565 93.4239 396.552 93.4239 395.4C93.4239 394.259 93.6372 393.251 94.0639 392.376C94.5012 391.501 95.1145 390.824 95.9039 390.344C96.7039 389.853 97.6532 389.608 98.7519 389.608C100.064 389.608 101.125 389.923 101.936 390.552C102.757 391.181 103.28 392.067 103.504 393.208H101.744C101.584 392.547 101.253 392.019 100.752 391.624C100.261 391.229 99.5945 391.032 98.7519 391.032C97.9945 391.032 97.3385 391.208 96.7839 391.56C96.2292 391.912 95.8025 392.413 95.5039 393.064C95.2052 393.715 95.0559 394.493 95.0559 395.4C95.0559 396.307 95.2052 397.091 95.5039 397.752C95.8025 398.403 96.2292 398.904 96.7839 399.256C97.3385 399.597 97.9945 399.768 98.7519 399.768C99.5945 399.768 100.261 399.581 100.752 399.208C101.253 398.824 101.584 398.307 101.744 397.656H103.504C103.28 398.765 102.757 399.635 101.936 400.264C101.125 400.883 100.064 401.192 98.7519 401.192ZM105.434 396.952V395.608H111.898V396.952H105.434ZM114.246 401V389.8H118.07C118.966 389.8 119.702 389.949 120.278 390.248C120.854 390.547 121.281 390.947 121.558 391.448C121.835 391.949 121.974 392.52 121.974 393.16C121.974 393.768 121.835 394.328 121.558 394.84C121.291 395.341 120.87 395.747 120.294 396.056C119.718 396.355 118.977 396.504 118.07 396.504H115.846V401H114.246ZM115.846 395.176H118.006C118.849 395.176 119.446 394.995 119.798 394.632C120.161 394.259 120.342 393.768 120.342 393.16C120.342 392.509 120.161 392.008 119.798 391.656C119.446 391.304 118.849 391.128 118.006 391.128H115.846V395.176Z" fill="#252322"/>
<path d="M33.4734 424V412.8H34.8174L40.7854 421.776V412.8H42.1294V424H40.7854L34.8174 415.024V424H33.4734ZM48.0559 424.192C47.3093 424.192 46.6373 424.021 46.0399 423.68C45.4426 423.328 44.9733 422.837 44.6319 422.208C44.2906 421.568 44.1199 420.827 44.1199 419.984C44.1199 419.12 44.2906 418.373 44.6319 417.744C44.9839 417.104 45.4586 416.613 46.0559 416.272C46.6639 415.92 47.3413 415.744 48.0879 415.744C48.8559 415.744 49.5333 415.92 50.1199 416.272C50.7173 416.613 51.1866 417.104 51.5279 417.744C51.8799 418.373 52.0559 419.115 52.0559 419.968C52.0559 420.821 51.8799 421.568 51.5279 422.208C51.1759 422.837 50.7013 423.328 50.1039 423.68C49.5066 424.021 48.8239 424.192 48.0559 424.192ZM48.0719 423.04C48.5306 423.04 48.9573 422.928 49.3519 422.704C49.7466 422.469 50.0666 422.123 50.3119 421.664C50.5573 421.205 50.6799 420.64 50.6799 419.968C50.6799 419.285 50.5573 418.72 50.3119 418.272C50.0773 417.813 49.7626 417.472 49.3679 417.248C48.9839 417.013 48.5573 416.896 48.0879 416.896C47.6399 416.896 47.2133 417.013 46.8079 417.248C46.4133 417.472 46.0933 417.813 45.8479 418.272C45.6133 418.72 45.4959 419.285 45.4959 419.968C45.4959 420.64 45.6133 421.205 45.8479 421.664C46.0933 422.123 46.4079 422.469 46.7919 422.704C47.1866 422.928 47.6133 423.04 48.0719 423.04ZM57.5503 424L61.6783 412.8H63.1023L67.2143 424H65.7903L62.3823 414.48L58.9583 424H57.5503ZM59.4383 421.12L59.8223 420.032H64.8943L65.2783 421.12H59.4383ZM72.0098 424.192C71.2525 424.192 70.5698 424.016 69.9618 423.664C69.3645 423.312 68.8951 422.821 68.5538 422.192C68.2125 421.552 68.0418 420.816 68.0418 419.984C68.0418 419.131 68.2125 418.389 68.5538 417.76C68.8951 417.131 69.3645 416.64 69.9618 416.288C70.5698 415.925 71.2525 415.744 72.0098 415.744C72.9698 415.744 73.7698 415.995 74.4098 416.496C75.0498 416.987 75.4551 417.648 75.6258 418.48H74.2498C74.1431 417.979 73.8818 417.589 73.4658 417.312C73.0498 417.035 72.5591 416.896 71.9938 416.896C71.5351 416.896 71.1085 417.013 70.7138 417.248C70.3191 417.472 70.0045 417.813 69.7698 418.272C69.5351 418.731 69.4178 419.296 69.4178 419.968C69.4178 420.469 69.4871 420.917 69.6258 421.312C69.7645 421.696 69.9511 422.016 70.1858 422.272C70.4205 422.528 70.6925 422.725 71.0018 422.864C71.3218 422.992 71.6525 423.056 71.9938 423.056C72.3778 423.056 72.7245 422.997 73.0338 422.88C73.3431 422.752 73.6045 422.565 73.8178 422.32C74.0311 422.075 74.1751 421.787 74.2498 421.456H75.6258C75.4551 422.267 75.0445 422.928 74.3938 423.44C73.7538 423.941 72.9591 424.192 72.0098 424.192ZM81.1661 424.192C80.4087 424.192 79.7261 424.016 79.1181 423.664C78.5207 423.312 78.0514 422.821 77.7101 422.192C77.3687 421.552 77.1981 420.816 77.1981 419.984C77.1981 419.131 77.3687 418.389 77.7101 417.76C78.0514 417.131 78.5207 416.64 79.1181 416.288C79.7261 415.925 80.4087 415.744 81.1661 415.744C82.1261 415.744 82.9261 415.995 83.5661 416.496C84.2061 416.987 84.6114 417.648 84.7821 418.48H83.4061C83.2994 417.979 83.0381 417.589 82.6221 417.312C82.2061 417.035 81.7154 416.896 81.1501 416.896C80.6914 416.896 80.2647 417.013 79.8701 417.248C79.4754 417.472 79.1607 417.813 78.9261 418.272C78.6914 418.731 78.5741 419.296 78.5741 419.968C78.5741 420.469 78.6434 420.917 78.7821 421.312C78.9207 421.696 79.1074 422.016 79.3421 422.272C79.5767 422.528 79.8487 422.725 80.1581 422.864C80.4781 422.992 80.8087 423.056 81.1501 423.056C81.5341 423.056 81.8807 422.997 82.1901 422.88C82.4994 422.752 82.7607 422.565 82.9741 422.32C83.1874 422.075 83.3314 421.787 83.4061 421.456H84.7821C84.6114 422.267 84.2007 422.928 83.5501 423.44C82.9101 423.941 82.1154 424.192 81.1661 424.192ZM90.2263 424.192C89.469 424.192 88.797 424.016 88.2103 423.664C87.6343 423.312 87.181 422.821 86.8503 422.192C86.5196 421.552 86.3543 420.811 86.3543 419.968C86.3543 419.115 86.5143 418.373 86.8343 417.744C87.165 417.115 87.6236 416.624 88.2103 416.272C88.8076 415.92 89.4903 415.744 90.2583 415.744C91.0476 415.744 91.7143 415.92 92.2583 416.272C92.813 416.624 93.2343 417.088 93.5223 417.664C93.821 418.229 93.9703 418.853 93.9703 419.536C93.9703 419.643 93.9703 419.755 93.9703 419.872C93.9703 419.989 93.965 420.123 93.9543 420.272H87.3623V419.232H92.6583C92.6263 418.496 92.381 417.92 91.9223 417.504C91.4743 417.088 90.909 416.88 90.2263 416.88C89.7676 416.88 89.341 416.987 88.9463 417.2C88.5623 417.403 88.253 417.707 88.0183 418.112C87.7836 418.507 87.6663 419.003 87.6663 419.6V420.048C87.6663 420.709 87.7836 421.264 88.0183 421.712C88.2636 422.16 88.5783 422.496 88.9623 422.72C89.357 422.944 89.7783 423.056 90.2263 423.056C90.7916 423.056 91.2556 422.933 91.6183 422.688C91.9916 422.432 92.2583 422.091 92.4183 421.664H93.7463C93.6183 422.144 93.3943 422.576 93.0743 422.96C92.7543 423.344 92.3543 423.648 91.8743 423.872C91.405 424.085 90.8556 424.192 90.2263 424.192ZM98.8241 424.192C98.1521 424.192 97.5654 424.08 97.0641 423.856C96.5734 423.632 96.1787 423.323 95.8801 422.928C95.5921 422.523 95.4161 422.048 95.3521 421.504H96.7281C96.7814 421.781 96.8934 422.037 97.0641 422.272C97.2347 422.507 97.4641 422.699 97.7521 422.848C98.0507 422.987 98.4134 423.056 98.8401 423.056C99.2134 423.056 99.5227 423.003 99.7681 422.896C100.013 422.779 100.195 422.624 100.312 422.432C100.44 422.24 100.504 422.032 100.504 421.808C100.504 421.477 100.424 421.227 100.264 421.056C100.115 420.885 99.8907 420.752 99.5921 420.656C99.2934 420.549 98.9307 420.459 98.5041 420.384C98.1521 420.32 97.8054 420.235 97.4641 420.128C97.1227 420.021 96.8187 419.883 96.5521 419.712C96.2854 419.531 96.0721 419.312 95.9121 419.056C95.7627 418.8 95.6881 418.485 95.6881 418.112C95.6881 417.653 95.8054 417.248 96.0401 416.896C96.2747 416.533 96.6107 416.251 97.0481 416.048C97.4961 415.845 98.0134 415.744 98.6001 415.744C99.4641 415.744 100.163 415.952 100.696 416.368C101.229 416.784 101.544 417.387 101.64 418.176H100.312C100.259 417.771 100.083 417.456 99.7841 417.232C99.4961 416.997 99.0961 416.88 98.5841 416.88C98.0827 416.88 97.6987 416.981 97.4321 417.184C97.1761 417.387 97.0481 417.653 97.0481 417.984C97.0481 418.197 97.1174 418.389 97.2561 418.56C97.4054 418.72 97.6187 418.859 97.8961 418.976C98.1841 419.093 98.5361 419.189 98.9521 419.264C99.4854 419.36 99.9707 419.488 100.408 419.648C100.845 419.808 101.197 420.048 101.464 420.368C101.741 420.677 101.88 421.12 101.88 421.696C101.88 422.197 101.752 422.635 101.496 423.008C101.251 423.381 100.899 423.675 100.44 423.888C99.9814 424.091 99.4427 424.192 98.8241 424.192ZM106.855 424.192C106.183 424.192 105.597 424.08 105.095 423.856C104.605 423.632 104.21 423.323 103.911 422.928C103.623 422.523 103.447 422.048 103.383 421.504H104.759C104.813 421.781 104.925 422.037 105.095 422.272C105.266 422.507 105.495 422.699 105.783 422.848C106.082 422.987 106.445 423.056 106.871 423.056C107.245 423.056 107.554 423.003 107.799 422.896C108.045 422.779 108.226 422.624 108.343 422.432C108.471 422.24 108.535 422.032 108.535 421.808C108.535 421.477 108.455 421.227 108.295 421.056C108.146 420.885 107.922 420.752 107.623 420.656C107.325 420.549 106.962 420.459 106.535 420.384C106.183 420.32 105.837 420.235 105.495 420.128C105.154 420.021 104.85 419.883 104.583 419.712C104.317 419.531 104.103 419.312 103.943 419.056C103.794 418.8 103.719 418.485 103.719 418.112C103.719 417.653 103.837 417.248 104.071 416.896C104.306 416.533 104.642 416.251 105.079 416.048C105.527 415.845 106.045 415.744 106.631 415.744C107.495 415.744 108.194 415.952 108.727 416.368C109.261 416.784 109.575 417.387 109.671 418.176H108.343C108.29 417.771 108.114 417.456 107.815 417.232C107.527 416.997 107.127 416.88 106.615 416.88C106.114 416.88 105.73 416.981 105.463 417.184C105.207 417.387 105.079 417.653 105.079 417.984C105.079 418.197 105.149 418.389 105.287 418.56C105.437 418.72 105.65 418.859 105.927 418.976C106.215 419.093 106.567 419.189 106.983 419.264C107.517 419.36 108.002 419.488 108.439 419.648C108.877 419.808 109.229 420.048 109.495 420.368C109.773 420.677 109.911 421.12 109.911 421.696C109.911 422.197 109.783 422.635 109.527 423.008C109.282 423.381 108.93 423.675 108.471 423.888C108.013 424.091 107.474 424.192 106.855 424.192Z" fill="#7C7C7E"/>
<circle cx="119" cy="418.5" r="2" fill="#E6E6E4"/>
<path d="M129.448 424V414.304L127.528 414.784V413.824L129.896 412.8H130.808V424H129.448ZM133.024 424V423.056C133.781 422.459 134.501 421.856 135.184 421.248C135.877 420.64 136.491 420.037 137.024 419.44C137.557 418.832 137.973 418.24 138.272 417.664C138.581 417.088 138.736 416.533 138.736 416C138.736 415.605 138.667 415.243 138.528 414.912C138.389 414.571 138.165 414.293 137.856 414.08C137.557 413.867 137.152 413.76 136.64 413.76C136.139 413.76 135.723 413.872 135.392 414.096C135.061 414.309 134.811 414.597 134.64 414.96C134.48 415.312 134.4 415.701 134.4 416.128H133.104C133.115 415.392 133.269 414.763 133.568 414.24C133.877 413.707 134.299 413.301 134.832 413.024C135.365 412.747 135.973 412.608 136.656 412.608C137.328 412.608 137.92 412.736 138.432 412.992C138.944 413.237 139.344 413.605 139.632 414.096C139.931 414.587 140.08 415.205 140.08 415.952C140.08 416.475 139.968 416.997 139.744 417.52C139.531 418.043 139.243 418.555 138.88 419.056C138.517 419.547 138.112 420.021 137.664 420.48C137.227 420.939 136.773 421.371 136.304 421.776C135.845 422.181 135.413 422.549 135.008 422.88H140.464V424H133.024ZM143.651 424V414.304L141.731 414.784V413.824L144.099 412.8H145.011V424H143.651ZM147.771 424V414.688C147.771 414.176 147.856 413.76 148.027 413.44C148.198 413.109 148.448 412.869 148.779 412.72C149.12 412.56 149.536 412.48 150.027 412.48H150.939V413.632H150.235C149.84 413.632 149.552 413.712 149.371 413.872C149.2 414.032 149.115 414.315 149.115 414.72V424H147.771ZM146.539 417.072V415.936H151.147V417.072H146.539ZM155.929 424C155.449 424 155.033 423.925 154.681 423.776C154.329 423.627 154.057 423.376 153.865 423.024C153.683 422.661 153.593 422.176 153.593 421.568V417.072H152.185V415.936H153.593L153.769 413.984H154.937V415.936H157.273V417.072H154.937V421.568C154.937 422.069 155.038 422.411 155.241 422.592C155.443 422.763 155.801 422.848 156.313 422.848H157.177V424H155.929ZM165.9 424.192C165.25 424.192 164.706 424.08 164.268 423.856C163.831 423.621 163.506 423.317 163.292 422.944C163.079 422.56 162.972 422.144 162.972 421.696C162.972 421.152 163.111 420.693 163.388 420.32C163.676 419.936 164.076 419.648 164.588 419.456C165.111 419.253 165.724 419.152 166.428 419.152H168.556C168.556 418.651 168.476 418.235 168.316 417.904C168.167 417.563 167.943 417.307 167.644 417.136C167.356 416.965 166.994 416.88 166.556 416.88C166.044 416.88 165.602 417.008 165.228 417.264C164.855 417.52 164.626 417.899 164.54 418.4H163.164C163.228 417.824 163.42 417.344 163.74 416.96C164.071 416.565 164.487 416.267 164.988 416.064C165.49 415.851 166.012 415.744 166.556 415.744C167.303 415.744 167.922 415.883 168.412 416.16C168.914 416.427 169.287 416.805 169.532 417.296C169.778 417.776 169.9 418.347 169.9 419.008V424H168.7L168.62 422.576C168.514 422.8 168.375 423.013 168.204 423.216C168.044 423.408 167.852 423.579 167.628 423.728C167.404 423.867 167.148 423.979 166.86 424.064C166.583 424.149 166.263 424.192 165.9 424.192ZM166.108 423.056C166.482 423.056 166.818 422.981 167.116 422.832C167.426 422.672 167.687 422.459 167.9 422.192C168.114 421.915 168.274 421.611 168.38 421.28C168.498 420.949 168.556 420.603 168.556 420.24V420.192H166.54C166.018 420.192 165.596 420.256 165.276 420.384C164.956 420.501 164.727 420.672 164.588 420.896C164.45 421.109 164.38 421.355 164.38 421.632C164.38 421.92 164.444 422.171 164.572 422.384C164.711 422.597 164.908 422.763 165.164 422.88C165.431 422.997 165.746 423.056 166.108 423.056ZM173.455 424L171.087 415.936H172.431L174.271 422.736H174.031L176.031 415.936H177.551L179.583 422.72L179.327 422.736L181.151 415.936H182.511L180.159 424H178.783L176.671 416.896H176.943L174.831 424H173.455ZM186.369 424.192C185.718 424.192 185.174 424.08 184.737 423.856C184.3 423.621 183.974 423.317 183.761 422.944C183.548 422.56 183.441 422.144 183.441 421.696C183.441 421.152 183.58 420.693 183.857 420.32C184.145 419.936 184.545 419.648 185.057 419.456C185.58 419.253 186.193 419.152 186.897 419.152H189.025C189.025 418.651 188.945 418.235 188.785 417.904C188.636 417.563 188.412 417.307 188.113 417.136C187.825 416.965 187.462 416.88 187.025 416.88C186.513 416.88 186.07 417.008 185.697 417.264C185.324 417.52 185.094 417.899 185.009 418.4H183.633C183.697 417.824 183.889 417.344 184.209 416.96C184.54 416.565 184.956 416.267 185.457 416.064C185.958 415.851 186.481 415.744 187.025 415.744C187.772 415.744 188.39 415.883 188.881 416.16C189.382 416.427 189.756 416.805 190.001 417.296C190.246 417.776 190.369 418.347 190.369 419.008V424H189.169L189.089 422.576C188.982 422.8 188.844 423.013 188.673 423.216C188.513 423.408 188.321 423.579 188.097 423.728C187.873 423.867 187.617 423.979 187.329 424.064C187.052 424.149 186.732 424.192 186.369 424.192ZM186.577 423.056C186.95 423.056 187.286 422.981 187.585 422.832C187.894 422.672 188.156 422.459 188.369 422.192C188.582 421.915 188.742 421.611 188.849 421.28C188.966 420.949 189.025 420.603 189.025 420.24V420.192H187.009C186.486 420.192 186.065 420.256 185.745 420.384C185.425 420.501 185.196 420.672 185.057 420.896C184.918 421.109 184.849 421.355 184.849 421.632C184.849 421.92 184.913 422.171 185.041 422.384C185.18 422.597 185.377 422.763 185.633 422.88C185.9 422.997 186.214 423.056 186.577 423.056ZM193.094 427.52L195.062 423.104H194.598L191.43 415.936H192.886L195.51 422.096L198.262 415.936H199.654L194.502 427.52H193.094Z" fill="#7C7C7E"/>
<rect x="236" y="373" width="68.5" height="70" rx="12" fill="#E6E6E4"/>
<path d="M274.25 399.5C274.25 397.843 275.593 396.5 277.25 396.5C278.907 396.5 280.25 397.843 280.25 399.5V400.5C280.25 400.914 280.586 401.25 281 401.25C281.414 401.25 281.75 400.914 281.75 400.5V399.5C281.75 397.015 279.735 395 277.25 395C274.765 395 272.75 397.015 272.75 399.5V402H264C261.929 402 260.25 403.679 260.25 405.75V415.25C260.25 417.321 261.929 419 264 419H275.5C277.571 419 279.25 417.321 279.25 415.25V405.75C279.25 403.679 277.571 402 275.5 402H274.25V399.5ZM269.75 412C268.922 412 268.25 411.328 268.25 410.5C268.25 409.672 268.922 409 269.75 409C270.578 409 271.25 409.672 271.25 410.5C271.25 411.328 270.578 412 269.75 412Z" fill="#7C7C7E"/>
<rect x="308.5" y="373" width="68.5" height="70" rx="12" fill="#E6E6E4"/>
<path d="M338.014 397.104C337.795 396.498 337.127 396.184 336.521 396.403C335.915 396.622 335.601 397.29 335.82 397.896L338.446 405.169C338.61 405.624 338.332 406.119 337.857 406.216C337.479 406.292 337.1 406.085 336.96 405.726L334.504 399.41C334.271 398.81 333.595 398.512 332.994 398.746C332.394 398.98 332.096 399.656 332.33 400.256L336.015 409.732C334.03 409.518 332.612 410.023 331.757 410.512C331.258 410.797 331.025 411.323 331.097 411.837C331.166 412.323 331.492 412.732 331.945 412.93C333.504 413.612 337.063 415.366 340.11 418.273C341.306 419.414 343.052 419.989 344.733 419.486L347.998 418.509C348.968 418.219 349.776 417.475 350.069 416.453C350.419 415.231 350.917 413.163 350.917 411.208C350.917 409.867 350.446 408.192 350.017 406.927C349.169 404.423 348.219 401.95 347.353 399.451C347.141 398.842 346.477 398.52 345.868 398.731C345.259 398.942 344.937 399.607 345.148 400.216L346.307 403.557C346.469 404.025 346.182 404.529 345.696 404.627C345.298 404.708 344.9 404.484 344.763 404.101L342.682 398.274C342.466 397.667 341.798 397.351 341.191 397.568C340.584 397.785 340.268 398.452 340.485 399.059L342.373 404.345C342.541 404.815 342.253 405.325 341.763 405.424C341.365 405.505 340.967 405.281 340.829 404.899L338.014 397.104ZM350.49 396.709C350.765 396.312 351.31 396.214 351.707 396.49C352.65 397.144 353.432 398.29 353.922 399.554C354.416 400.831 354.656 402.336 354.404 403.776C354.32 404.252 353.867 404.57 353.391 404.487C352.915 404.404 352.596 403.95 352.68 403.474C352.866 402.409 352.694 401.23 352.29 400.186C351.881 399.13 351.276 398.321 350.709 397.927C350.312 397.652 350.214 397.106 350.49 396.709ZM350.098 398.945C349.769 398.592 349.215 398.572 348.862 398.902C348.508 399.231 348.489 399.785 348.818 400.138C349.305 400.661 349.75 401.293 349.75 402.458C349.75 402.942 350.142 403.333 350.625 403.333C351.108 403.333 351.5 402.942 351.5 402.458C351.5 400.707 350.774 399.67 350.098 398.945Z" fill="#7C7C7E"/>
<rect x="16" y="455" width="216" height="68" rx="12" fill="#E6E6E4"/>
<path d="M33.2618 483V471.8H36.7018C38.0031 471.8 39.0804 472.029 39.9338 472.488C40.7871 472.947 41.4164 473.597 41.8218 474.44C42.2378 475.272 42.4458 476.264 42.4458 477.416C42.4458 478.568 42.2378 479.56 41.8218 480.392C41.4164 481.224 40.7871 481.869 39.9338 482.328C39.0911 482.776 38.0138 483 36.7018 483H33.2618ZM34.8618 481.656H36.6378C37.6724 481.656 38.4938 481.485 39.1018 481.144C39.7098 480.803 40.1418 480.317 40.3978 479.688C40.6644 479.048 40.7978 478.291 40.7978 477.416C40.7978 476.531 40.6644 475.768 40.3978 475.128C40.1418 474.488 39.7098 473.997 39.1018 473.656C38.4938 473.315 37.6724 473.144 36.6378 473.144H34.8618V481.656ZM47.9711 483.192C47.2138 483.192 46.5311 483.016 45.9231 482.664C45.3258 482.312 44.8511 481.821 44.4991 481.192C44.1578 480.552 43.9871 479.816 43.9871 478.984C43.9871 478.131 44.1631 477.389 44.5151 476.76C44.8671 476.12 45.3471 475.624 45.9551 475.272C46.5631 474.92 47.2458 474.744 48.0031 474.744C48.7711 474.744 49.4538 474.92 50.0511 475.272C50.6485 475.624 51.1178 476.115 51.4591 476.744C51.8111 477.373 51.9871 478.115 51.9871 478.968C51.9871 479.821 51.8111 480.563 51.4591 481.192C51.1178 481.821 50.6431 482.312 50.0351 482.664C49.4271 483.016 48.7391 483.192 47.9711 483.192ZM47.9711 481.816C48.4085 481.816 48.8031 481.709 49.1551 481.496C49.5178 481.283 49.8058 480.968 50.0191 480.552C50.2431 480.125 50.3551 479.597 50.3551 478.968C50.3551 478.339 50.2485 477.816 50.0351 477.4C49.8218 476.973 49.5338 476.653 49.1711 476.44C48.8191 476.227 48.4298 476.12 48.0031 476.12C47.5765 476.12 47.1818 476.227 46.8191 476.44C46.4565 476.653 46.1631 476.973 45.9391 477.4C45.7258 477.816 45.6191 478.339 45.6191 478.968C45.6191 479.597 45.7258 480.125 45.9391 480.552C46.1631 480.968 46.4511 481.283 46.8031 481.496C47.1658 481.709 47.5551 481.816 47.9711 481.816ZM57.5493 483.192C56.7919 483.192 56.1093 483.016 55.5013 482.664C54.9039 482.312 54.4293 481.821 54.0773 481.192C53.7359 480.552 53.5653 479.816 53.5653 478.984C53.5653 478.131 53.7413 477.389 54.0933 476.76C54.4453 476.12 54.9253 475.624 55.5333 475.272C56.1413 474.92 56.8239 474.744 57.5813 474.744C58.3493 474.744 59.0319 474.92 59.6293 475.272C60.2266 475.624 60.6959 476.115 61.0373 476.744C61.3893 477.373 61.5653 478.115 61.5653 478.968C61.5653 479.821 61.3893 480.563 61.0373 481.192C60.6959 481.821 60.2213 482.312 59.6133 482.664C59.0053 483.016 58.3173 483.192 57.5493 483.192ZM57.5493 481.816C57.9866 481.816 58.3813 481.709 58.7333 481.496C59.0959 481.283 59.3839 480.968 59.5973 480.552C59.8213 480.125 59.9333 479.597 59.9333 478.968C59.9333 478.339 59.8266 477.816 59.6133 477.4C59.3999 476.973 59.1119 476.653 58.7493 476.44C58.3973 476.227 58.0079 476.12 57.5813 476.12C57.1546 476.12 56.7599 476.227 56.3973 476.44C56.0346 476.653 55.7413 476.973 55.5173 477.4C55.3039 477.816 55.1973 478.339 55.1973 478.968C55.1973 479.597 55.3039 480.125 55.5173 480.552C55.7413 480.968 56.0293 481.283 56.3813 481.496C56.7439 481.709 57.1333 481.816 57.5493 481.816ZM63.4474 483V474.936H64.8874L65.0314 476.456C65.2127 476.093 65.4474 475.789 65.7354 475.544C66.0234 475.288 66.3594 475.091 66.7434 474.952C67.138 474.813 67.586 474.744 68.0874 474.744V476.44H67.5114C67.1807 476.44 66.866 476.483 66.5674 476.568C66.2687 476.643 66.002 476.776 65.7674 476.968C65.5434 477.16 65.3674 477.421 65.2394 477.752C65.1114 478.083 65.0474 478.493 65.0474 478.984V483H63.4474ZM75.0105 483V473.608L73.0585 474.104V472.904L75.6025 471.8H76.6425V483H75.0105ZM78.7565 483V481.848C79.5032 481.272 80.2125 480.691 80.8845 480.104C81.5565 479.517 82.1538 478.936 82.6765 478.36C83.2098 477.773 83.6258 477.203 83.9245 476.648C84.2232 476.083 84.3725 475.544 84.3725 475.032C84.3725 474.669 84.3085 474.333 84.1805 474.024C84.0525 473.715 83.8498 473.464 83.5725 473.272C83.2952 473.069 82.9165 472.968 82.4365 472.968C81.9778 472.968 81.5938 473.069 81.2845 473.272C80.9858 473.475 80.7565 473.747 80.5965 474.088C80.4472 474.419 80.3725 474.787 80.3725 475.192H78.8205C78.8312 474.424 78.9965 473.773 79.3165 473.24C79.6365 472.707 80.0685 472.301 80.6125 472.024C81.1672 471.747 81.7858 471.608 82.4685 471.608C83.1832 471.608 83.8018 471.741 84.3245 472.008C84.8472 472.264 85.2525 472.643 85.5405 473.144C85.8285 473.635 85.9725 474.237 85.9725 474.952C85.9725 475.464 85.8712 475.976 85.6685 476.488C85.4658 476.989 85.1885 477.48 84.8365 477.96C84.4952 478.44 84.1112 478.904 83.6845 479.352C83.2578 479.789 82.8152 480.205 82.3565 480.6C81.9085 480.995 81.4765 481.352 81.0605 481.672H86.3245V483H78.7565ZM89.4949 483V473.608L87.5429 474.104V472.904L90.0869 471.8H91.1269V483H89.4949ZM98.3769 483.192C97.2782 483.192 96.3289 482.952 95.5289 482.472C94.7395 481.981 94.1262 481.304 93.6889 480.44C93.2622 479.565 93.0489 478.552 93.0489 477.4C93.0489 476.259 93.2622 475.251 93.6889 474.376C94.1262 473.501 94.7395 472.824 95.5289 472.344C96.3289 471.853 97.2782 471.608 98.3769 471.608C99.6889 471.608 100.75 471.923 101.561 472.552C102.382 473.181 102.905 474.067 103.129 475.208H101.369C101.209 474.547 100.878 474.019 100.377 473.624C99.8862 473.229 99.2195 473.032 98.3769 473.032C97.6195 473.032 96.9635 473.208 96.4089 473.56C95.8542 473.912 95.4275 474.413 95.1289 475.064C94.8302 475.715 94.6809 476.493 94.6809 477.4C94.6809 478.307 94.8302 479.091 95.1289 479.752C95.4275 480.403 95.8542 480.904 96.4089 481.256C96.9635 481.597 97.6195 481.768 98.3769 481.768C99.2195 481.768 99.8862 481.581 100.377 481.208C100.878 480.824 101.209 480.307 101.369 479.656H103.129C102.905 480.765 102.382 481.635 101.561 482.264C100.75 482.883 99.6889 483.192 98.3769 483.192ZM105.059 478.952V477.608H111.523V478.952H105.059ZM112.667 483L116.779 471.8H118.523L122.635 483H120.923L117.643 473.72L114.347 483H112.667ZM114.523 480.232L114.971 478.952H120.235L120.683 480.232H114.523ZM123.511 483L127.623 471.8H129.367L133.479 483H131.767L128.487 473.72L125.191 483H123.511ZM125.367 480.232L125.815 478.952H131.079L131.527 480.232H125.367Z" fill="#252322"/>
<path d="M33.1646 506V505.056C33.922 504.459 34.642 503.856 35.3246 503.248C36.018 502.64 36.6313 502.037 37.1646 501.44C37.698 500.832 38.114 500.24 38.4126 499.664C38.722 499.088 38.8766 498.533 38.8766 498C38.8766 497.605 38.8073 497.243 38.6686 496.912C38.53 496.571 38.306 496.293 37.9966 496.08C37.698 495.867 37.2926 495.76 36.7806 495.76C36.2793 495.76 35.8633 495.872 35.5326 496.096C35.202 496.309 34.9513 496.597 34.7806 496.96C34.6206 497.312 34.5406 497.701 34.5406 498.128H33.2446C33.2553 497.392 33.41 496.763 33.7086 496.24C34.018 495.707 34.4393 495.301 34.9726 495.024C35.506 494.747 36.114 494.608 36.7966 494.608C37.4686 494.608 38.0606 494.736 38.5726 494.992C39.0846 495.237 39.4846 495.605 39.7726 496.096C40.0713 496.587 40.2206 497.205 40.2206 497.952C40.2206 498.475 40.1086 498.997 39.8846 499.52C39.6713 500.043 39.3833 500.555 39.0206 501.056C38.658 501.547 38.2526 502.021 37.8046 502.48C37.3673 502.939 36.914 503.371 36.4446 503.776C35.986 504.181 35.554 504.549 35.1486 504.88H40.6046V506H33.1646ZM46.6911 506.192C45.7098 506.192 44.8618 505.952 44.1471 505.472C43.4431 504.981 42.9045 504.304 42.5311 503.44C42.1578 502.565 41.9711 501.552 41.9711 500.4C41.9711 499.248 42.1578 498.24 42.5311 497.376C42.9045 496.501 43.4431 495.824 44.1471 495.344C44.8618 494.853 45.7098 494.608 46.6911 494.608C47.6725 494.608 48.5098 494.853 49.2031 495.344C49.9071 495.824 50.4458 496.501 50.8191 497.376C51.1925 498.24 51.3791 499.248 51.3791 500.4C51.3791 501.552 51.1925 502.565 50.8191 503.44C50.4458 504.304 49.9071 504.981 49.2031 505.472C48.5098 505.952 47.6725 506.192 46.6911 506.192ZM46.6751 505.008C47.3151 505.008 47.8858 504.827 48.3871 504.464C48.8885 504.091 49.2831 503.563 49.5711 502.88C49.8591 502.187 50.0031 501.36 50.0031 500.4C50.0031 499.44 49.8591 498.619 49.5711 497.936C49.2831 497.243 48.8885 496.715 48.3871 496.352C47.8858 495.989 47.3151 495.808 46.6751 495.808C46.0351 495.808 45.4591 495.989 44.9471 496.352C44.4458 496.715 44.0511 497.243 43.7631 497.936C43.4858 498.619 43.3471 499.44 43.3471 500.4C43.3471 501.36 43.4858 502.187 43.7631 502.88C44.0511 503.563 44.4458 504.091 44.9471 504.464C45.4591 504.827 46.0351 505.008 46.6751 505.008ZM57.6286 506.192C56.6473 506.192 55.7993 505.952 55.0846 505.472C54.3806 504.981 53.842 504.304 53.4686 503.44C53.0953 502.565 52.9086 501.552 52.9086 500.4C52.9086 499.248 53.0953 498.24 53.4686 497.376C53.842 496.501 54.3806 495.824 55.0846 495.344C55.7993 494.853 56.6473 494.608 57.6286 494.608C58.61 494.608 59.4473 494.853 60.1406 495.344C60.8446 495.824 61.3833 496.501 61.7566 497.376C62.13 498.24 62.3166 499.248 62.3166 500.4C62.3166 501.552 62.13 502.565 61.7566 503.44C61.3833 504.304 60.8446 504.981 60.1406 505.472C59.4473 505.952 58.61 506.192 57.6286 506.192ZM57.6126 505.008C58.2526 505.008 58.8233 504.827 59.3246 504.464C59.826 504.091 60.2206 503.563 60.5086 502.88C60.7966 502.187 60.9406 501.36 60.9406 500.4C60.9406 499.44 60.7966 498.619 60.5086 497.936C60.2206 497.243 59.826 496.715 59.3246 496.352C58.8233 495.989 58.2526 495.808 57.6126 495.808C56.9726 495.808 56.3966 495.989 55.8846 496.352C55.3833 496.715 54.9886 497.243 54.7006 497.936C54.4233 498.619 54.2846 499.44 54.2846 500.4C54.2846 501.36 54.4233 502.187 54.7006 502.88C54.9886 503.563 55.3833 504.091 55.8846 504.464C56.3966 504.827 56.9726 505.008 57.6126 505.008ZM64.6461 506V496.688C64.6461 496.176 64.7315 495.76 64.9021 495.44C65.0728 495.109 65.3235 494.869 65.6541 494.72C65.9955 494.56 66.4115 494.48 66.9021 494.48H67.8141V495.632H67.1101C66.7155 495.632 66.4275 495.712 66.2461 495.872C66.0755 496.032 65.9901 496.315 65.9901 496.72V506H64.6461ZM63.4141 499.072V497.936H68.0221V499.072H63.4141ZM72.8036 506C72.3236 506 71.9076 505.925 71.5556 505.776C71.2036 505.627 70.9316 505.376 70.7396 505.024C70.5583 504.661 70.4676 504.176 70.4676 503.568V499.072H69.0596V497.936H70.4676L70.6436 495.984H71.8116V497.936H74.1476V499.072H71.8116V503.568C71.8116 504.069 71.913 504.411 72.1156 504.592C72.3183 504.763 72.6756 504.848 73.1876 504.848H74.0516V506H72.8036ZM82.7753 506.192C82.1246 506.192 81.5806 506.08 81.1432 505.856C80.7059 505.621 80.3806 505.317 80.1673 504.944C79.9539 504.56 79.8473 504.144 79.8473 503.696C79.8473 503.152 79.9859 502.693 80.2633 502.32C80.5513 501.936 80.9513 501.648 81.4633 501.456C81.9859 501.253 82.5993 501.152 83.3033 501.152H85.4313C85.4313 500.651 85.3513 500.235 85.1913 499.904C85.0419 499.563 84.8179 499.307 84.5193 499.136C84.2313 498.965 83.8686 498.88 83.4313 498.88C82.9193 498.88 82.4766 499.008 82.1033 499.264C81.7299 499.52 81.5006 499.899 81.4153 500.4H80.0393C80.1033 499.824 80.2953 499.344 80.6153 498.96C80.9459 498.565 81.3619 498.267 81.8633 498.064C82.3646 497.851 82.8873 497.744 83.4313 497.744C84.1779 497.744 84.7966 497.883 85.2873 498.16C85.7886 498.427 86.1619 498.805 86.4073 499.296C86.6526 499.776 86.7753 500.347 86.7753 501.008V506H85.5753L85.4953 504.576C85.3886 504.8 85.2499 505.013 85.0793 505.216C84.9193 505.408 84.7273 505.579 84.5033 505.728C84.2793 505.867 84.0233 505.979 83.7352 506.064C83.4579 506.149 83.1379 506.192 82.7753 506.192ZM82.9833 505.056C83.3566 505.056 83.6926 504.981 83.9913 504.832C84.3006 504.672 84.5619 504.459 84.7753 504.192C84.9886 503.915 85.1486 503.611 85.2553 503.28C85.3726 502.949 85.4313 502.603 85.4313 502.24V502.192H83.4153C82.8926 502.192 82.4713 502.256 82.1513 502.384C81.8313 502.501 81.6019 502.672 81.4633 502.896C81.3246 503.109 81.2553 503.355 81.2553 503.632C81.2553 503.92 81.3193 504.171 81.4473 504.384C81.5859 504.597 81.7833 504.763 82.0393 504.88C82.3059 504.997 82.6206 505.056 82.9833 505.056ZM90.3301 506L87.9621 497.936H89.3061L91.1461 504.736H90.9061L92.9061 497.936H94.4261L96.4581 504.72L96.2021 504.736L98.0261 497.936H99.3861L97.0341 506H95.6581L93.5461 498.896H93.8181L91.7061 506H90.3301ZM103.244 506.192C102.593 506.192 102.049 506.08 101.612 505.856C101.175 505.621 100.849 505.317 100.636 504.944C100.423 504.56 100.316 504.144 100.316 503.696C100.316 503.152 100.455 502.693 100.732 502.32C101.02 501.936 101.42 501.648 101.932 501.456C102.455 501.253 103.068 501.152 103.772 501.152H105.9C105.9 500.651 105.82 500.235 105.66 499.904C105.511 499.563 105.287 499.307 104.988 499.136C104.7 498.965 104.337 498.88 103.9 498.88C103.388 498.88 102.945 499.008 102.572 499.264C102.199 499.52 101.969 499.899 101.884 500.4H100.508C100.572 499.824 100.764 499.344 101.084 498.96C101.415 498.565 101.831 498.267 102.332 498.064C102.833 497.851 103.356 497.744 103.9 497.744C104.647 497.744 105.265 497.883 105.756 498.16C106.257 498.427 106.631 498.805 106.876 499.296C107.121 499.776 107.244 500.347 107.244 501.008V506H106.044L105.964 504.576C105.857 504.8 105.719 505.013 105.548 505.216C105.388 505.408 105.196 505.579 104.972 505.728C104.748 505.867 104.492 505.979 104.204 506.064C103.927 506.149 103.607 506.192 103.244 506.192ZM103.452 505.056C103.825 505.056 104.161 504.981 104.46 504.832C104.769 504.672 105.031 504.459 105.244 504.192C105.457 503.915 105.617 503.611 105.724 503.28C105.841 502.949 105.9 502.603 105.9 502.24V502.192H103.884C103.361 502.192 102.94 502.256 102.62 502.384C102.3 502.501 102.071 502.672 101.932 502.896C101.793 503.109 101.724 503.355 101.724 503.632C101.724 503.92 101.788 504.171 101.916 504.384C102.055 504.597 102.252 504.763 102.508 504.88C102.775 504.997 103.089 505.056 103.452 505.056ZM109.969 509.52L111.937 505.104H111.473L108.305 497.936H109.761L112.385 504.096L115.137 497.936H116.529L111.377 509.52H109.969Z" fill="#7C7C7E"/>
<rect x="236" y="455" width="68.5" height="68" rx="12" fill="#E6E6E4"/>
<path d="M274.25 480.5C274.25 478.843 275.593 477.5 277.25 477.5C278.907 477.5 280.25 478.843 280.25 480.5V481.5C280.25 481.914 280.586 482.25 281 482.25C281.414 482.25 281.75 481.914 281.75 481.5V480.5C281.75 478.015 279.735 476 277.25 476C274.765 476 272.75 478.015 272.75 480.5V483H264C261.929 483 260.25 484.679 260.25 486.75V496.25C260.25 498.321 261.929 500 264 500H275.5C277.571 500 279.25 498.321 279.25 496.25V486.75C279.25 484.679 277.571 483 275.5 483H274.25V480.5ZM269.75 493C268.922 493 268.25 492.328 268.25 491.5C268.25 490.672 268.922 490 269.75 490C270.578 490 271.25 490.672 271.25 491.5C271.25 492.328 270.578 493 269.75 493Z" fill="#7C7C7E"/>
<rect x="308.5" y="455" width="68.5" height="68" rx="12" fill="#E6E6E4"/>
<path d="M338.014 478.104C337.795 477.498 337.127 477.184 336.521 477.403C335.915 477.622 335.601 478.29 335.82 478.896L338.446 486.169C338.61 486.624 338.332 487.119 337.857 487.216C337.479 487.292 337.1 487.085 336.96 486.726L334.504 480.41C334.271 479.81 333.595 479.512 332.994 479.746C332.394 479.98 332.096 480.656 332.33 481.256L336.015 490.732C334.03 490.518 332.612 491.023 331.757 491.512C331.258 491.797 331.025 492.323 331.097 492.837C331.166 493.323 331.492 493.732 331.945 493.93C333.504 494.612 337.063 496.366 340.11 499.273C341.306 500.414 343.052 500.989 344.733 500.486L347.998 499.509C348.968 499.219 349.776 498.475 350.069 497.453C350.419 496.231 350.917 494.163 350.917 492.208C350.917 490.867 350.446 489.192 350.017 487.927C349.169 485.423 348.219 482.95 347.353 480.451C347.141 479.842 346.477 479.52 345.868 479.731C345.259 479.942 344.937 480.607 345.148 481.216L346.307 484.557C346.469 485.025 346.182 485.529 345.696 485.627C345.298 485.708 344.9 485.484 344.763 485.101L342.682 479.274C342.466 478.667 341.798 478.351 341.191 478.568C340.584 478.785 340.268 479.452 340.485 480.059L342.373 485.345C342.541 485.815 342.253 486.325 341.763 486.424C341.365 486.505 340.967 486.281 340.829 485.899L338.014 478.104ZM350.49 477.709C350.765 477.312 351.31 477.214 351.707 477.49C352.65 478.144 353.432 479.29 353.922 480.554C354.416 481.831 354.656 483.336 354.404 484.776C354.32 485.252 353.867 485.57 353.391 485.487C352.915 485.404 352.596 484.95 352.68 484.474C352.866 483.409 352.694 482.23 352.29 481.186C351.881 480.13 351.276 479.321 350.709 478.927C350.312 478.652 350.214 478.106 350.49 477.709ZM350.098 479.945C349.769 479.592 349.215 479.572 348.862 479.902C348.508 480.231 348.489 480.785 348.818 481.138C349.305 481.661 349.75 482.293 349.75 483.458C349.75 483.942 350.142 484.333 350.625 484.333C351.108 484.333 351.5 483.942 351.5 483.458C351.5 481.707 350.774 480.67 350.098 479.945Z" fill="#7C7C7E"/>
</svg>
